<?xml version="1.0" standalone="no"?>
<!DOCTYPE svg PUBLIC "-//W3C//DTD SVG 1.1//EN" "http://www.w3.org/Graphics/SVG/1.1/DTD/svg11.dtd" >
<svg xmlns="http://www.w3.org/2000/svg">
<defs>
<font id="Zawgyi-One" horiz-adv-x="0" >
  <font-face 
    font-family="Zawgyi-One"
    font-weight="400"
    font-stretch="normal"
    units-per-em="2048"
    panose-1="2 11 6 4 3 5 4 4 2 4"
    ascent="1638"
    descent="-410"
    x-height="1117"
    cap-height="1489"
    bbox="-2203 -878 4610 1964"
    underline-thickness="130"
    underline-position="-885"
    unicode-range="U+0021-U+266F"
  />
<missing-glyph horiz-adv-x="1024" 
 />
    <glyph glyph-name=".notdef" horiz-adv-x="1024" 
 />
    <glyph glyph-name=".null" 
 />
    <glyph glyph-name="nonmarkingreturn" horiz-adv-x="682" 
 />
    <glyph glyph-name="exclam" unicode="!" horiz-adv-x="680" 
d="M452 1489l-28 -1079h-166l-30 1079h224zM442 0h-204v211h204v-211z" />
    <glyph glyph-name="quotedbl" unicode="&#x22;" horiz-adv-x="822" 
d="M708 1556l-43 -579h-132l-43 579h218zM332 1556l-43 -579h-132l-43 579h218z" />
    <glyph glyph-name="numbersign" unicode="#" horiz-adv-x="1490" 
d="M1348 932h-293l-92 -376h268v-135h-303l-105 -421h-129l105 421h-270l-105 -421h-129l105 421h-258v135h293l92 376h-268v135h303l105 422h129l-105 -422h270l105 422h129l-105 -422h258v-135zM929 934h-274l-94 -380h274z" />
    <glyph glyph-name="dollar" unicode="$" horiz-adv-x="1118" 
d="M1024 380q0 -147 -112.5 -252.5t-283.5 -126.5v-362h-114v357q-108 1 -217.5 25t-190.5 64v202h15q79 -59 178 -96t215 -47v432l-61 14.5t-61 16.5q-150 41 -214.5 124t-64.5 204q0 142 111 247t290 122v272h114v-270q91 -3 188.5 -25.5t159.5 -49.5v-198h-15
q-70 48 -153.5 84t-179.5 44v-430q33 -7 61.5 -14.5t49.5 -12.5q136 -32 210.5 -111t74.5 -213zM514 746v414q-90 -8 -151 -58.5t-61 -140.5q0 -89 44.5 -137.5t167.5 -77.5zM835 354q0 94 -48 139t-159 68v-415q102 12 154.5 61.5t52.5 146.5z" />
    <glyph glyph-name="percent" unicode="%" horiz-adv-x="2000" 
d="M807 1076q0 -225 -90.5 -333.5t-261.5 -108.5q-174 0 -263.5 110t-89.5 331q0 224 91 333t262 109q174 0 263 -110t89 -331zM1473 1489l-780 -1489h-165l780 1489h165zM1897 413q0 -225 -90.5 -333.5t-261.5 -108.5q-174 0 -263.5 110t-89.5 331q0 224 91 333t262 109
q174 0 263 -110t89 -331zM629 1076q0 152 -35.5 230t-138.5 78t-139 -79t-36 -230q0 -150 34 -229t141 -79q103 0 138.5 79t35.5 230zM1719 413q0 152 -35.5 230t-138.5 78t-139 -79t-36 -230q0 -150 34 -229t141 -79q103 0 138.5 79t35.5 230z" />
    <glyph glyph-name="ampersand" unicode="&#x26;" horiz-adv-x="1380" 
d="M1445 0h-256l-204 213q-102 -130 -209.5 -187t-243.5 -57q-202 0 -333.5 121.5t-131.5 318.5q0 86 24 153t64 121q39 52 90 91.5t98 68.5q-101 68 -151 143t-50 189q0 71 28.5 131.5t74.5 106.5q48 47 124.5 77t167.5 30q166 0 271 -87.5t105 -221.5q0 -49 -12.5 -101.5
t-45.5 -101.5t-86.5 -92t-142.5 -75l352 -362q14 82 17 178.5t3 251.5h195v-96q0 -96 -24.5 -216.5t-80.5 -228.5zM898 301l-460 471q-25 -16 -50 -38t-55 -66q-24 -35 -42.5 -91.5t-18.5 -119.5q0 -142 84.5 -233.5t228.5 -91.5q96 0 173 40.5t140 128.5zM532 912
q56 19 92.5 51t56.5 70q18 35 27 74t9 84q0 97 -56.5 150t-131.5 53q-89 0 -140 -60t-51 -150q0 -40 7.5 -68.5t31.5 -66.5q21 -31 58.5 -66t96.5 -71z" />
    <glyph glyph-name="quotesingle" unicode="'" horiz-adv-x="432" 
d="M327 1556l-43 -579h-136l-43 579h222z" />
    <glyph glyph-name="parenleft" unicode="(" horiz-adv-x="784" 
d="M710 -412h-229q-174 207 -273.5 438t-99.5 546q0 308 98.5 542.5t274.5 441.5h229v-10q-81 -73 -154.5 -168.5t-136.5 -222.5q-60 -123 -97.5 -271t-37.5 -312q0 -171 36.5 -313t98.5 -270q60 -123 137 -222.5t154 -168.5v-10z" />
    <glyph glyph-name="parenright" unicode=")" horiz-adv-x="784" 
d="M676 572q0 -309 -99 -543t-274 -441h-229v10q77 69 155 169.5t136 221.5q62 129 98.5 272.5t36.5 310.5q0 165 -37 312t-98 271t-138 223t-153 168v10h229q174 -207 273.5 -440t99.5 -544z" />
    <glyph glyph-name="asterisk" unicode="*" horiz-adv-x="1118" 
d="M1007 887l-65 -110l-327 217l7 -364h-125l6 364l-325 -218l-66 110l354 207l-354 207l66 110l326 -219l-7 365h125l-8 -365l328 218l65 -110l-354 -205z" />
    <glyph glyph-name="plus" unicode="+" horiz-adv-x="1490" 
d="M1333 572h-505v-505h-166v505h-505v160h505v505h166v-505h505v-160z" />
    <glyph glyph-name="comma" unicode="," horiz-adv-x="620" 
d="M500 285l-280 -655h-146l176 655h250z" />
    <glyph glyph-name="hyphen" unicode="-" horiz-adv-x="744" 
d="M654 561h-564v181h564v-181z" />
    <glyph glyph-name="period" unicode="." horiz-adv-x="620" 
d="M429 0h-239v285h239v-285z" />
    <glyph glyph-name="slash" unicode="/" horiz-adv-x="783" 
d="M728 1556l-583 -1880h-169l580 1880h172z" />
    <glyph glyph-name="zero" unicode="0" horiz-adv-x="1118" 
d="M1035 745q0 -401 -116.5 -588.5t-359.5 -187.5q-246 0 -361 191t-115 583q0 403 116.5 589.5t359.5 186.5q246 0 361 -193t115 -581zM779 291q29 74 41 187t12 267q0 153 -12 266t-42 188q-30 76 -82.5 115.5t-136.5 39.5q-83 0 -136.5 -39.5t-84.5 -117.5
q-30 -76 -41 -192t-11 -262q0 -156 9.5 -261t41.5 -188q29 -77 82.5 -118.5t139.5 -41.5q83 0 136.5 39.5t83.5 117.5z" />
    <glyph glyph-name="one" unicode="1" horiz-adv-x="1118" 
d="M952 0h-726v152h270v998h-270v136q153 0 225.5 43.5t81.5 164.5h155v-1342h264v-152z" />
    <glyph glyph-name="two" unicode="2" horiz-adv-x="1118" 
d="M1028 0h-919v209l187 180t172 179q170 187 232 299.5t62 232.5q0 62 -19.5 109t-53.5 78q-35 30 -81 45t-101 15q-53 0 -107.5 -13.5t-104.5 -33.5q-42 -17 -81 -41t-63 -41h-11v212q62 31 172.5 60.5t209.5 29.5q208 0 326 -110.5t118 -299.5q0 -87 -20.5 -161
t-56.5 -137q-37 -65 -89 -129t-110 -126q-94 -102 -209.5 -212l-184.5 -174h732v-171z" />
    <glyph glyph-name="three" unicode="3" horiz-adv-x="1118" 
d="M511 1347q-54 0 -108 -13t-106 -34q-48 -20 -83.5 -42t-63.5 -41h-12v211q65 35 176.5 63.5t212.5 28.5t176.5 -20.5t136.5 -63.5q66 -48 99.5 -116t33.5 -159q0 -123 -81 -216t-194 -118v-14q47 -9 100.5 -31t99.5 -65t75 -110.5t29 -164.5q0 -101 -34.5 -185.5
t-97.5 -149.5q-65 -68 -157 -103t-209 -35q-112 0 -222 27t-185 65v211h14q63 -46 169 -88t212 -42q61 0 122.5 19.5t102.5 63.5q40 44 61 97t21 134t-23.5 133t-65.5 82t-99.5 41.5t-124.5 11.5h-85v166h66q135 0 219.5 64t84.5 186q0 56 -22 96.5t-56 64.5q-38 26 -84 36
t-98 10z" />
    <glyph glyph-name="four" unicode="4" horiz-adv-x="1118" 
d="M1067 512h-177v-512h-192v512h-658v210l666 767h184v-817h177v-160zM698 672v582l-502 -582h502z" />
    <glyph glyph-name="five" unicode="5" horiz-adv-x="1118" 
d="M1011 474q0 -108 -34.5 -200t-96.5 -159q-63 -68 -156.5 -107t-209.5 -39q-107 0 -210.5 23.5t-179.5 61.5v211h14q23 -17 66 -38.5t95 -40.5q59 -21 108 -32.5t110 -11.5q60 0 117 21.5t98 69.5q37 44 56.5 103t19.5 139q0 79 -21.5 130t-62.5 84q-43 38 -105.5 53.5
t-139.5 15.5q-81 0 -163 -12.5t-131 -23.5v767h817v-175h-624v-396q36 4 71 6t64 2q114 0 193 -19t152 -74q74 -56 113.5 -140t39.5 -219z" />
    <glyph glyph-name="six" unicode="6" horiz-adv-x="1118" 
d="M1051 483q0 -115 -38 -212t-102 -162q-67 -69 -150 -104.5t-183 -35.5q-101 0 -183.5 34t-145.5 101q-77 81 -120.5 216.5t-43.5 333.5q0 194 40 350.5t123 272.5q81 113 209 176.5t296 63.5q50 0 93 -5t76 -16v-191h-9q-27 15 -78 27.5t-109 12.5q-186 0 -300.5 -125.5
t-135.5 -372.5q71 50 146 77t164 27q87 0 152.5 -17.5t136.5 -70.5q82 -62 122 -157t40 -223zM848 475q0 92 -24 154t-78 106q-39 32 -88.5 42t-101.5 10q-70 0 -136 -21t-130 -61q-2 -22 -3 -42.5t-1 -51.5q0 -155 30.5 -250t75.5 -144q43 -47 88.5 -66t98.5 -19
q120 0 194.5 86t74.5 257z" />
    <glyph glyph-name="seven" unicode="7" horiz-adv-x="1118" 
d="M1044 1266l-644 -1266h-213l682 1314h-770v175h945v-223z" />
    <glyph glyph-name="eight" unicode="8" horiz-adv-x="1118" 
d="M811 1142q0 100 -67 167t-186 67q-109 0 -178.5 -60t-69.5 -162q0 -74 35.5 -125t106.5 -92q31 -17 94.5 -47t115.5 -47q87 67 118 137.5t31 161.5zM839 396q0 92 -36 146t-139 110q-34 19 -90.5 41l-127.5 52q-83 -55 -127 -135.5t-44 -183.5q0 -135 81.5 -223
t204.5 -88q126 0 202 75.5t76 205.5zM559 -34q-111 0 -202 33t-155 95q-63 60 -95.5 142.5t-32.5 174.5q0 121 64.5 222.5t187.5 161.5v6q-110 64 -163 140t-53 190q0 168 127 280t322 112q203 0 325.5 -106.5t122.5 -272.5q0 -100 -58.5 -198t-168.5 -153v-6
q130 -61 197 -148t67 -224q0 -191 -138.5 -320t-346.5 -129z" />
    <glyph glyph-name="nine" unicode="9" horiz-adv-x="1118" 
d="M832 877q0 152 -28 247.5t-77 147.5q-44 48 -89 66t-99 18q-123 0 -196 -88t-73 -255q0 -94 24 -155t78 -105q38 -31 86 -41.5t103 -10.5q64 0 138 22.5t129 59.5q1 15 2.5 39.5t1.5 54.5zM67 1005q0 115 37.5 210t102.5 164q62 66 151.5 103t181.5 37q103 0 186.5 -34.5
t144.5 -99.5q77 -82 119.5 -215t42.5 -336q0 -185 -41.5 -350.5t-122.5 -274.5q-86 -116 -206.5 -177t-297.5 -61q-40 0 -85 4.5t-84 16.5v191h10q25 -14 78 -27t108 -13q196 0 308 129t127 369q-80 -54 -152.5 -79t-157.5 -25q-83 0 -151 18t-137 70q-80 61 -121 154.5
t-41 225.5z" />
    <glyph glyph-name="colon" unicode=":" horiz-adv-x="724" 
d="M482 832h-239v285h239v-285zM482 0h-239v285h239v-285z" />
    <glyph glyph-name="semicolon" unicode=";" horiz-adv-x="724" 
d="M482 832h-239v285h239v-285zM548 285l-280 -655h-146l176 655h250z" />
    <glyph glyph-name="less" unicode="&#x3c;" horiz-adv-x="1490" 
d="M1275 79l-1074 513v120l1074 513v-178l-833 -395l833 -395v-178z" />
    <glyph glyph-name="equal" unicode="=" horiz-adv-x="1490" 
d="M1298 782h-1106v160h1106v-160zM1298 362h-1106v160h1106v-160z" />
    <glyph glyph-name="greater" unicode="&#x3e;" horiz-adv-x="1490" 
d="M1289 592l-1074 -513v178l833 395l-833 395v178l1074 -513v-120z" />
    <glyph glyph-name="question" unicode="?" horiz-adv-x="970" 
d="M912 1139q0 -98 -32.5 -174.5t-86.5 -134.5t-122.5 -107t-144.5 -95v-228h-179v305l130.5 81.5t116.5 88.5q54 51 84 111.5t30 137.5q0 113 -71 168.5t-185 55.5q-100 0 -188.5 -33.5t-143.5 -69.5h-11v204q67 27 169 48.5t193 21.5q205 0 323 -104.5t118 -275.5zM542 0
h-204v211h204v-211z" />
    <glyph glyph-name="at" unicode="@" horiz-adv-x="1862" 
d="M1739 663q0 -139 -38 -268.5t-109 -237.5h-421l-25 116q-67 -57 -123.5 -90.5t-153.5 -33.5q-154 0 -252 123.5t-98 358.5t120.5 366t275.5 131q72 0 124 -18t105 -48v48h159v-842h227q38 71 54.5 184t16.5 205q0 327 -166.5 526.5t-478.5 199.5q-296 0 -488.5 -215.5
t-192.5 -522.5q0 -330 187 -534.5t489 -204.5q81 0 170.5 11t169.5 35v-142q-84 -20 -170.5 -28t-170.5 -8q-354 0 -586 243t-232 630q0 367 239.5 619t583.5 252q368 0 576 -237.5t208 -617.5zM1142 408v518q-56 29 -103 41.5t-98 12.5q-113 0 -182 -84.5t-69 -261.5
q0 -160 52 -245t166 -85q61 0 120.5 29t113.5 75z" />
    <glyph glyph-name="A" unicode="A" horiz-adv-x="1228" 
d="M-10 0l502 1489h244l502 -1489h-209l-135 416h-569l-135 -416h-200zM839 585l-230 702l-229 -702h459z" />
    <glyph glyph-name="B" unicode="B" horiz-adv-x="1207" 
d="M1161 457q0 -111 -42 -196t-113 -140q-84 -66 -180 -93.5t-248 -27.5h-427v1489h395q159 0 238.5 -10.5t152.5 -49.5q80 -43 117 -112.5t37 -163.5q0 -105 -55.5 -188t-153.5 -130v-8q133 -36 206 -131.5t73 -238.5zM885 1125q0 54 -18 93.5t-58 62.5q-48 27 -107 33
t-163 6h-190v-436h225q93 0 137 9.5t91 39.5q45 29 64 76t19 116zM955 449q0 84 -24 138.5t-97 92.5q-47 25 -102.5 32t-157.5 7h-225v-550h161q130 0 205 12t132 51q56 39 82 88.5t26 128.5z" />
    <glyph glyph-name="C" unicode="C" horiz-adv-x="1230" 
d="M733 -27q-146 0 -268.5 49t-211.5 146t-138 242t-49 333q0 187 47.5 326t138.5 242q89 100 211 152.5t273 52.5q75 0 140.5 -11t121.5 -28q48 -15 98.5 -37.5t99.5 -49.5v-239h-16q-26 24 -67 58t-100 67q-57 31 -124 51t-155 20q-95 0 -180 -39t-149 -115
q-63 -76 -98 -191t-35 -259q0 -153 37 -263.5t101 -186.5q62 -74 146 -111.5t178 -37.5q86 0 159 21t130 53q55 31 95 63.5t63 55.5h15v-236l-92.5 -44t-105.5 -41q-65 -21 -120.5 -32t-144.5 -11z" />
    <glyph glyph-name="D" unicode="D" horiz-adv-x="1389" 
d="M1325 743q0 -204 -82.5 -368t-221.5 -256q-113 -71 -229.5 -95t-297.5 -24h-343v1489h339q210 0 329.5 -31.5t203.5 -86.5q144 -95 223 -252.5t79 -375.5zM1119 746q0 172 -57 293.5t-169 189.5q-79 48 -169 69t-224 21h-151v-1149h151q132 0 231 21t181 78
q103 70 155 186.5t52 290.5z" />
    <glyph glyph-name="E" unicode="E" horiz-adv-x="1149" 
d="M151 0v1489h931v-176h-733v-408h683v-176h-683v-553h733v-176h-931z" />
    <glyph glyph-name="F" unicode="F" horiz-adv-x="1068" 
d="M1042 1313h-693v-420h664v-176h-664v-717h-198v1489h891v-176z" />
    <glyph glyph-name="G" unicode="G" horiz-adv-x="1367" 
d="M774 -29q-158 0 -289 48t-225 146q-94 99 -144 245t-50 336q0 180 50.5 322.5t144.5 243.5q91 98 224 151t291 53q75 0 144 -11t132 -30q50 -15 111.5 -41.5t99.5 -45.5v-239h-17q-37 33 -76.5 62.5t-111.5 63.5q-60 30 -138 50t-168 20q-215 0 -347.5 -162t-132.5 -431
q0 -150 35 -262t101 -190q64 -77 154.5 -117.5t203.5 -40.5q84 0 167 12t140 36v385h-344v174h540v-650q-38 -17 -101.5 -43t-118.5 -41q-73 -22 -132 -33t-143 -11z" />
    <glyph glyph-name="H" unicode="H" horiz-adv-x="1383" 
d="M1232 0h-198v729h-685v-729h-198v1489h198v-584h685v584h198v-1489z" />
    <glyph glyph-name="I" unicode="I" horiz-adv-x="764" 
d="M671 0h-578v152h190v1185h-190v152h578v-152h-190v-1185h190v-152z" />
    <glyph glyph-name="J" unicode="J" horiz-adv-x="853" 
d="M712 387q0 -196 -119.5 -302t-320.5 -106q-48 0 -128.5 8.5t-134.5 20.5v189h11q41 -14 101.5 -31t123.5 -17q92 0 146.5 21t80.5 60q27 40 34.5 98t7.5 134v869h-315v158h513v-1102z" />
    <glyph glyph-name="K" unicode="K" horiz-adv-x="1204" 
d="M1236 0h-257l-543 693l-87 -98v-595h-198v1489h198v-685l610 685h241l-616 -665z" />
    <glyph glyph-name="L" unicode="L" horiz-adv-x="1019" 
d="M1014 0h-863v1489h198v-1313h665v-176z" />
    <glyph glyph-name="M" unicode="M" horiz-adv-x="1578" 
d="M1427 0h-198v1283l-388 -873h-120l-385 873v-1283h-185v1489h270l372 -829l359 829h275v-1489z" />
    <glyph glyph-name="N" unicode="N" horiz-adv-x="1367" 
d="M1216 0h-222l-658 1284v-1284h-185v1489h281l599 -1179v1179h185v-1489z" />
    <glyph glyph-name="O" unicode="O" horiz-adv-x="1449" 
d="M1204 1318q85 -98 132 -243t47 -331q0 -181 -46 -327t-133 -245q-91 -104 -212.5 -153.5t-267.5 -49.5q-151 0 -272 51t-208 152q-86 99 -132 244t-46 328q0 188 46.5 330t132.5 244q86 99 207.5 150.5t271.5 51.5q152 0 274 -53t206 -149zM1177 744q0 148 -32 262
t-90 189q-59 77 -142.5 115.5t-187.5 38.5q-108 0 -188.5 -37.5t-142.5 -116.5q-59 -76 -90.5 -191t-31.5 -260q0 -293 123 -448.5t330 -155.5t329.5 155.5t122.5 448.5z" />
    <glyph glyph-name="P" unicode="P" horiz-adv-x="1129" 
d="M1091 1040q0 -97 -34.5 -183.5t-95.5 -147.5q-77 -76 -181 -115t-263 -39h-168v-555h-198v1489h374q132 0 225 -22t164 -71q83 -57 130 -144.5t47 -211.5zM885 1035q0 77 -26.5 134t-80.5 93q-47 31 -109.5 44t-155.5 13h-164v-595h135q120 0 194 19.5t123 69.5
q44 45 64 98t20 124z" />
    <glyph glyph-name="Q" unicode="Q" horiz-adv-x="1449" 
d="M1388 -364q-54 -14 -113.5 -21t-118.5 -7q-167 0 -271.5 94t-114.5 268h-25h-21q-151 0 -272.5 51.5t-207.5 150.5t-132 244t-46 328q0 188 46.5 330t132.5 244q86 99 207.5 150.5t271.5 51.5q152 0 274 -53t206 -149q85 -98 132 -243t47 -331q0 -289 -113 -477
t-309 -255q5 -56 19.5 -100.5t37.5 -70.5q27 -31 65.5 -45.5t105.5 -14.5q40 0 94 12.5t78 22.5h27v-180zM1177 744q0 148 -32 262t-90 189q-59 77 -142.5 115.5t-187.5 38.5q-108 0 -188.5 -37.5t-142.5 -116.5q-59 -76 -90.5 -191t-31.5 -260q0 -293 123 -449t330 -156
t329.5 156t122.5 449z" />
    <glyph glyph-name="R" unicode="R" horiz-adv-x="1271" 
d="M1304 0h-257l-472 592h-226v-592h-198v1489h384q128 0 214.5 -14t164.5 -65q78 -50 123.5 -129t45.5 -196q0 -164 -83 -274t-226 -163zM876 1070q0 65 -23 115.5t-71 82.5q-42 28 -98 39.5t-139 11.5h-196v-562h174q85 0 153 15t116 62q43 42 63.5 100t20.5 136z" />
    <glyph glyph-name="S" unicode="S" horiz-adv-x="1141" 
d="M566 -27q-162 0 -275.5 33.5t-213.5 82.5v248h14q98 -92 222 -142.5t239 -50.5q164 0 248 68.5t84 180.5q0 89 -44 145t-140 83q-69 20 -126 33t-143 35q-77 20 -138 51t-108 81q-46 49 -71.5 115.5t-25.5 153.5q0 181 141 303.5t360 122.5q125 0 236.5 -25t206.5 -71
v-237h-15q-71 65 -182 113.5t-233 48.5q-138 0 -223 -64.5t-85 -169.5q0 -95 50 -151t145 -82q63 -17 154 -38.5t151 -39.5q154 -47 225 -142t71 -234q0 -87 -35.5 -172t-99.5 -144q-72 -65 -162.5 -100t-226.5 -35z" />
    <glyph glyph-name="T" unicode="T" horiz-adv-x="1196" 
d="M499 0v1313h-500v176h1198v-176h-500v-1313h-198z" />
    <glyph glyph-name="U" unicode="U" horiz-adv-x="1343" 
d="M671 -31q-131 0 -229 34.5t-167 102.5q-78 78 -110 186.5t-32 267.5v929h198v-929q0 -103 13 -173.5t51 -126.5q40 -60 108.5 -91t167.5 -31q93 0 165 31t112 91q37 57 50.5 126t13.5 169v934h198v-929q0 -155 -31.5 -266t-110.5 -188q-71 -69 -165.5 -103t-231.5 -34z
" />
    <glyph glyph-name="V" unicode="V" horiz-adv-x="1222" 
d="M1230 1489l-512 -1489h-214l-512 1489h212l412 -1236l412 1236h202z" />
    <glyph glyph-name="W" unicode="W" horiz-adv-x="1847" 
d="M1821 1489l-374 -1489h-223l-303 1236l-296 -1236h-218l-381 1489h203l300 -1238l298 1238h201l301 -1250l298 1250h194z" />
    <glyph glyph-name="X" unicode="X" horiz-adv-x="1189" 
d="M1181 0h-227l-363 596l-369 -596h-214l473 745l-459 744h226l356 -585l361 585h215l-466 -734z" />
    <glyph glyph-name="Y" unicode="Y" horiz-adv-x="1180" 
d="M1193 1489l-503 -830v-659h-198v638l-503 851h220l384 -657l390 657h210z" />
    <glyph glyph-name="Z" unicode="Z" horiz-adv-x="1145" 
d="M1100 0h-1040v184l797 1129h-761v176h984v-179l-806 -1134h826v-176z" />
    <glyph glyph-name="bracketleft" unicode="[" horiz-adv-x="784" 
d="M686 -392h-520v1948h520v-143h-345v-1662h345v-143z" />
    <glyph glyph-name="backslash" unicode="\" horiz-adv-x="783" 
d="M804 -324h-169l-583 1880h172z" />
    <glyph glyph-name="bracketright" unicode="]" horiz-adv-x="784" 
d="M618 -392h-520v143h345v1662h-345v143h520v-1948z" />
    <glyph glyph-name="asciicircum" unicode="^" horiz-adv-x="1490" 
d="M1357 684h-198l-415 625l-414 -627h-197l549 807h126z" />
    <glyph glyph-name="underscore" unicode="_" horiz-adv-x="1118" 
d="M1134 -300h-1150v130h1150v-130z" />
    <glyph glyph-name="grave" unicode="`" horiz-adv-x="1118" 
d="M670 1302h-149l-273 374h243z" />
    <glyph glyph-name="a" unicode="a" horiz-adv-x="1075" 
d="M760 275v310q-67 -6 -169.5 -16.5t-165.5 -29.5q-75 -23 -124 -70.5t-49 -132.5q0 -96 54 -145t158 -49q89 0 161 38.5t135 94.5zM760 119l-61.5 -47.5t-74.5 -48.5q-50 -26 -96.5 -40t-130.5 -14q-69 0 -131 26t-109 73q-45 46 -72 113.5t-27 142.5q0 116 49 197.5
t155 129.5q94 43 222 59.5t276 24.5v36q0 66 -20 106.5t-56 62.5q-36 23 -88 30.5t-107 7.5q-65 0 -153 -19.5t-176 -56.5h-11v191q52 15 149 33t192 18q115 0 194 -18t142 -65q61 -46 91 -119t30 -178v-764h-187v119z" />
    <glyph glyph-name="b" unicode="b" horiz-adv-x="1132" 
d="M879 562q0 200 -61 303.5t-196 103.5q-77 0 -155.5 -36t-142.5 -91v-640q71 -35 126 -49.5t121 -14.5q144 0 226 102t82 322zM1073 577q0 -274 -133 -441t-333 -167q-91 0 -155.5 22.5t-127.5 60.5l-12 -52h-176v1556h188v-556q71 64 154 106t188 42q189 0 298 -151.5
t109 -419.5z" />
    <glyph glyph-name="c" unicode="c" horiz-adv-x="945" 
d="M580 -25q-115 0 -211 35.5t-165 107.5t-107 181.5t-38 257.5q0 147 39.5 254t105.5 180t164.5 112.5t211.5 39.5q92 0 177.5 -26t152.5 -60v-211h-11q-20 17 -51.5 39t-76.5 45q-39 20 -92 35t-102 15q-146 0 -234.5 -110.5t-88.5 -312.5q0 -198 85.5 -308.5
t237.5 -110.5q92 0 175 38t147 98h11v-211l-70 -31.5t-76 -27.5q-48 -14 -86 -21.5t-98 -7.5z" />
    <glyph glyph-name="d" unicode="d" horiz-adv-x="1132" 
d="M996 0h-188v114q-44 -37 -76 -61t-75 -44q-40 -19 -83 -29.5t-100 -10.5q-91 0 -168.5 38t-131.5 111q-55 74 -85 182.5t-30 249.5q0 147 38 254.5t105 187.5q61 73 147.5 114.5t181.5 41.5q84 0 146 -18.5t131 -57.5v484h188v-1556zM808 272v644q-70 34 -125.5 47
t-120.5 13q-145 0 -227 -108.5t-82 -313.5q0 -197 63 -301.5t202 -104.5q74 0 149 33.5t141 90.5z" />
    <glyph glyph-name="e" unicode="e" horiz-adv-x="1078" 
d="M621 -26q-267 0 -414.5 150.5t-147.5 427.5q0 273 143 434.5t374 161.5q104 0 184 -30t140 -94t92 -156.5t32 -226.5v-102h-774q0 -195 98 -298t271 -103q62 0 121.5 14t107.5 36q51 23 86 44.5t58 40.5h11v-205l-82 -32.5t-88 -30.5q-55 -15 -99.5 -23t-112.5 -8z
M841 683q-2 76 -18 131t-46 93q-33 42 -84.5 64t-127.5 22q-75 0 -127.5 -22.5t-95.5 -65.5q-42 -44 -64 -97.5t-28 -124.5h591z" />
    <glyph glyph-name="f" unicode="f" horiz-adv-x="652" 
d="M724 1376h-10q-25 9 -72 17.5t-84 8.5q-119 0 -169.5 -53.5t-50.5 -193.5v-38h311v-156h-305v-961h-188v961h-127v156h127v37q0 202 97 307t278 105q52 0 102 -5.5t91 -12.5v-172z" />
    <glyph glyph-name="g" unicode="g" horiz-adv-x="1132" 
d="M808 303v613q-70 34 -129.5 48.5t-118.5 14.5q-143 0 -225 -105t-82 -301q0 -186 62.5 -283t202.5 -97q73 0 150.5 29t139.5 81zM176 -179q19 -8 56 -21.5t84 -25.5q52 -13 96 -21t96 -8q87 0 147.5 23t94.5 64q32 41 45 95t13 123v98q-76 -66 -149 -97.5t-183 -31.5
q-191 0 -304 142t-113 408q0 139 39 246.5t105 182.5q63 72 149 111t178 39q87 0 150.5 -20.5t127.5 -58.5l11 48h177v-990q0 -284 -124 -417t-379 -133q-82 0 -167.5 13t-159.5 35v196h10z" />
    <glyph glyph-name="h" unicode="h" horiz-adv-x="1142" 
d="M1014 0h-188v636q0 77 -7.5 143.5t-28.5 106.5q-23 42 -64 62.5t-112 20.5q-70 0 -144.5 -37.5t-145.5 -97.5v-834h-188v1556h188v-563q84 75 166 115t173 40q165 0 258 -108.5t93 -314.5v-725z" />
    <glyph glyph-name="i" unicode="i" horiz-adv-x="468" 
d="M328 0h-188v1117h188v-1117zM341 1304h-214v195h214v-195z" />
    <glyph glyph-name="j" unicode="j" horiz-adv-x="577" 
d="M441 -32q0 -191 -102.5 -291t-282.5 -100q-31 0 -69.5 3t-76.5 9v168h11q22 -5 48.5 -9.5t50.5 -4.5q75 0 123.5 18.5t72.5 58.5q22 36 29.5 91t7.5 134v916h-202v156h390v-1149zM442 1304h-214v195h214v-195z" />
    <glyph glyph-name="k" unicode="k" horiz-adv-x="1020" 
d="M1062 0h-247l-417 539l-74 -72v-467h-188v1556h188v-911l442 472h234l-459 -467z" />
    <glyph glyph-name="l" unicode="l" horiz-adv-x="468" 
d="M328 0h-188v1556h188v-1556z" />
    <glyph glyph-name="m" unicode="m" horiz-adv-x="1720" 
d="M1404 0v646q0 77 -6 142.5t-25 102.5q-20 40 -57 59t-100 19q-58 0 -124.5 -35.5t-137.5 -102.5l2.5 -40.5t1.5 -55.5v-735h-188v646q0 77 -6 142.5t-25 102.5q-20 40 -57 59t-100 19q-61 0 -128 -38t-130 -97v-834h-188v1117h188v-124q74 74 146.5 114.5t159.5 40.5
q99 0 175.5 -45t116.5 -148q85 95 166 144t176 49q72 0 131 -22.5t103 -72.5q45 -51 69.5 -127t24.5 -191v-735h-188z" />
    <glyph glyph-name="n" unicode="n" horiz-adv-x="1142" 
d="M1014 0h-188v636q0 77 -7.5 143.5t-28.5 106.5q-23 42 -64 62.5t-112 20.5q-70 0 -144.5 -37.5t-145.5 -97.5v-834h-188v1117h188v-124q84 75 166 115t173 40q165 0 258 -108.5t93 -314.5v-725z" />
    <glyph glyph-name="o" unicode="o" horiz-adv-x="1112" 
d="M1055 558q0 -282 -136 -435.5t-362 -153.5q-233 0 -366.5 158.5t-133.5 430.5q0 280 137.5 435t362.5 155q226 0 362 -154.5t136 -435.5zM861 558q0 217 -79 322.5t-225 105.5q-147 0 -226.5 -105.5t-79.5 -322.5q0 -210 79.5 -318.5t226.5 -108.5q145 0 224.5 106.5
t79.5 320.5z" />
    <glyph glyph-name="p" unicode="p" horiz-adv-x="1132" 
d="M1073 588q0 -279 -133.5 -444.5t-337.5 -165.5q-83 0 -147 19t-131 59v-468h-188v1529h188v-117q70 63 155.5 105.5t186.5 42.5q192 0 299.5 -152t107.5 -408zM879 567q0 191 -61 296.5t-198 105.5q-80 0 -154.5 -35.5t-141.5 -91.5v-633q74 -36 126.5 -49t120.5 -13
q146 0 227 107t81 313z" />
    <glyph glyph-name="q" unicode="q" horiz-adv-x="1132" 
d="M996 -412h-188v534q-82 -75 -160 -109.5t-173 -34.5q-190 0 -303 152.5t-113 424.5q0 144 39.5 254.5t104.5 185.5q62 73 148 113t179 40q86 0 149 -20t129 -59l12 48h176v-1529zM808 280v636q-71 35 -127 49t-120 14q-148 0 -228 -107t-80 -308q0 -196 64 -301.5
t199 -105.5q79 0 154 34t138 89z" />
    <glyph glyph-name="r" unicode="r" horiz-adv-x="738" 
d="M728 915h-10q-21 6 -44.5 7.5t-56.5 1.5q-76 0 -151 -33t-142 -98v-793h-188v1117h188v-166q103 91 179.5 128.5t148.5 37.5q29 0 43.5 -1.5t32.5 -4.5v-196z" />
    <glyph glyph-name="s" unicode="s" horiz-adv-x="914" 
d="M438 -27q-112 0 -209.5 30t-161.5 64v211h10q24 -19 56.5 -42t86.5 -48q48 -22 105.5 -39t119.5 -17q45 0 96 10.5t76 26.5q35 23 50.5 49t15.5 78q0 67 -36.5 101t-129.5 57q-36 9 -94 21t-107 26q-128 37 -186 114.5t-58 187.5q0 151 114 246t303 95q93 0 187 -23
t158 -58v-201h-10q-72 57 -160.5 90t-178.5 33q-93 0 -157 -39t-64 -118q0 -70 38 -104.5t122 -56.5q42 -11 93.5 -21.5t108.5 -24.5q124 -31 186.5 -103t62.5 -196q0 -72 -28.5 -136.5t-83.5 -110.5q-60 -50 -135.5 -76t-189.5 -26z" />
    <glyph glyph-name="t" unicode="t" horiz-adv-x="685" 
d="M474 -22q-154 0 -240 87.5t-86 276.5v619h-127v156h127v321h188v-321h346v-156h-346v-531q0 -85 3 -131t23 -86q17 -35 55 -52.5t103 -17.5q46 0 89 13.5t62 22.5h11v-169q-53 -15 -107.5 -23.5t-100.5 -8.5z" />
    <glyph glyph-name="u" unicode="u" horiz-adv-x="1142" 
d="M1006 0h-188v124q-87 -76 -165 -115.5t-174 -39.5q-73 0 -137.5 24t-112.5 76t-74.5 131t-26.5 192v725h188v-636q0 -89 6.5 -147.5t29.5 -102.5q23 -43 62.5 -63t113.5 -20q69 0 147 39t143 96v834h188v-1117z" />
    <glyph glyph-name="v" unicode="v" horiz-adv-x="1020" 
d="M1014 1117l-421 -1117h-169l-418 1117h203l306 -862l303 862h196z" />
    <glyph glyph-name="w" unicode="w" horiz-adv-x="1520" 
d="M1490 1117l-283 -1117h-174l-273 861l-271 -861h-173l-286 1117h196l197 -865l265 865h155l272 -865l186 865h189z" />
    <glyph glyph-name="x" unicode="x" horiz-adv-x="1014" 
d="M1004 0h-231l-271 422l-279 -422h-213l388 554l-384 563h231l269 -418l276 418h214l-386 -550z" />
    <glyph glyph-name="y" unicode="y" horiz-adv-x="1020" 
d="M1014 1117l-601 -1529h-201l200 466l-406 1063h203l305 -827l304 827h196z" />
    <glyph glyph-name="z" unicode="z" horiz-adv-x="910" 
d="M870 0h-821v139l584 823h-560v155h786v-134l-587 -826h598v-157z" />
    <glyph glyph-name="braceleft" unicode="{" horiz-adv-x="984" 
d="M886 -392h-116q-179 0 -280.5 98.5t-101.5 288.5v149q0 69 -13 139t-50 120t-96.5 75.5t-147.5 25.5h-21v156h21q88 0 147.5 25.5t96.5 75.5t50 120t13 139v149q0 190 101.5 288.5t280.5 98.5h116v-138h-80q-59 0 -102 -12t-74 -41q-32 -30 -47.5 -83t-15.5 -130v-175
q0 -82 -19 -138t-56 -105q-33 -44 -86 -80.5t-110 -59.5v-24q57 -23 109.5 -59.5t86.5 -80.5q37 -49 56 -105t19 -138v-175q0 -77 15.5 -130t47.5 -83q30 -29 73.5 -41t102.5 -12h80v-138z" />
    <glyph glyph-name="bar" unicode="|" horiz-adv-x="783" 
d="M475 -392h-167v1948h167v-1948z" />
    <glyph glyph-name="braceright" unicode="}" horiz-adv-x="984" 
d="M924 504h-21q-88 0 -147.5 -25.5t-96.5 -75.5t-50 -120t-13 -139v-149q0 -190 -101.5 -288.5t-280.5 -98.5h-116v138h80q59 0 102 12t74 41q32 30 47.5 83t15.5 130v175q0 82 19 138t56 105q33 44 86 80.5t110 59.5v24q-57 23 -110 59.5t-86 80.5q-37 49 -56 105t-19 138
v175q0 77 -15.5 130t-47.5 83q-31 29 -74 41t-102 12h-80v138h116q179 0 280.5 -98.5t101.5 -288.5v-149q0 -69 13 -139t50 -120t96.5 -75.5t147.5 -25.5h21v-156z" />
    <glyph glyph-name="asciitilde" unicode="~" horiz-adv-x="1490" 
d="M1356 927q-2 -102 -21 -196.5t-60 -169.5q-41 -73 -102 -119t-159 -46q-57 0 -102.5 15.5t-80.5 40.5t-67 60t-57 65l-53 67t-51 60q-27 28 -56 45t-66 17q-50 0 -83 -26.5t-55 -78.5q-21 -50 -29.5 -120t-11.5 -146h-168q2 104 21.5 199t58.5 167q40 76 106 120.5
t156 44.5q60 0 105.5 -16t80.5 -41t64.5 -57t57.5 -67l52.5 -66t51.5 -61q29 -30 58.5 -46t62.5 -16q50 0 84.5 28t53.5 76q20 50 29.5 117.5t11.5 149.5h168z" />
    <glyph glyph-name="uni1000" unicode="&#x1000;" horiz-adv-x="2217" 
d="M1135 508h-11q-16 -309 -364 -504l-78 143q270 158 270 388q0 170 -110.5 280.5t-278.5 110.5q-172 0 -284.5 -110.5t-112.5 -280.5q0 -234 287 -388l-84 -147l-74 41q-299 160 -299 494q0 251 156.5 405t410.5 154q305 0 481 -260q173 260 480 260q250 0 407.5 -155
t157.5 -404q0 -248 -158.5 -405.5t-406.5 -157.5q-74 0 -148 18q6 55 31 170q86 -15 117 -15q174 0 285.5 108.5t111.5 281.5q0 165 -114.5 278t-282.5 113q-172 0 -280.5 -109.5t-108.5 -281.5v-27z" />
    <glyph glyph-name="uni1001" unicode="&#x1001;" horiz-adv-x="1247" 
d="M565 4q-289 0 -442 211q-76 107 -76 176q0 98 78 156q72 53 174 53q225 0 346 -197q60 -96 72 -202q241 112 241 364q0 170 -111.5 280.5t-281.5 110.5q-223 0 -381 -274l-149 80q205 362 530 362q248 0 406.5 -156.5t158.5 -402.5q0 -248 -158.5 -404.5t-406.5 -156.5z
M313 436q-94 0 -94 -43q0 -10 6 -24q27 -37 45 -68q113 -125 295 -125h23q-4 117 -81 188.5t-194 71.5z" />
    <glyph glyph-name="uni1002" unicode="&#x1002;" horiz-adv-x="1247" 
d="M797 0l-109 129q264 160 264 379q0 164 -112.5 276.5t-276.5 112.5q-172 0 -284.5 -110.5t-112.5 -278.5q0 -219 264 -375l-117 -129l-49 25q-268 133 -268 479q0 246 159.5 403.5t407.5 157.5q242 0 398.5 -158.5t156.5 -402.5q0 -361 -321 -508z" />
    <glyph glyph-name="uni1003" unicode="&#x1003;" horiz-adv-x="2217" 
d="M1522 4q-305 0 -478 254q-174 -258 -479 -258q-248 0 -408.5 157.5t-160.5 405.5q0 127 84 234q37 26 215 172l-25 12q-30 0 -94 -53l-84 164q74 55 213 55q74 0 132.5 -52.5t58.5 -125.5q0 -76 -103 -154q-18 -18 -149 -110q-62 -68 -62 -142q0 -168 108.5 -274.5
t274.5 -106.5t275.5 106.5t109.5 274.5q0 223 -280 377l86 160l80 -43q278 -150 299 -457h2v-35q0 -166 108.5 -273.5t276.5 -107.5q166 0 274.5 107.5t108.5 273.5q0 164 -109.5 271.5t-273.5 107.5q-56 0 -152 -31l12 197q99 14 140 14q250 0 408.5 -154.5t158.5 -404.5
t-158.5 -405.5t-408.5 -155.5z" />
    <glyph glyph-name="uni1004" unicode="&#x1004;" horiz-adv-x="1247" 
d="M1057 289q-60 -129 -205 -211q-137 -74 -287 -74q-248 0 -404.5 156.5t-156.5 404.5t156.5 403.5t404.5 155.5q328 0 529 -362l-144 -80q-157 274 -385 274q-170 0 -279.5 -110.5t-109.5 -280.5t109.5 -279.5t279.5 -109.5q228 0 385 273l144 -80z" />
    <glyph glyph-name="uni1005" unicode="&#x1005;" horiz-adv-x="1247" 
d="M557 0q-246 0 -403.5 158.5t-157.5 404.5q0 244 157.5 401.5t403.5 157.5t403.5 -156.5t157.5 -402.5t-158.5 -404.5t-402.5 -158.5zM557 952q-106 0 -201 -55q125 -137 127 -334q-20 -194 -157 -319q104 -74 231 -74q170 0 282.5 111.5t112.5 281.5q0 168 -112.5 278.5
t-282.5 110.5zM252 803q-86 -111 -86 -240q0 -112 61 -209q88 78 111 215q-12 136 -86 234z" />
    <glyph glyph-name="uni1006" unicode="&#x1006;" horiz-adv-x="2217" 
d="M1524 4q-279 0 -455 227l-20 27q-170 -254 -478 -254q-288 0 -438 211q-78 109 -78 176q0 98 78 156q70 53 172 53q230 0 350 -194q58 -95 64 -205q246 112 246 364q0 170 -112 280.5t-282 110.5q-225 0 -376 -274l-148 80q195 362 524 362q310 0 480 -254
q168 254 473 254q250 0 407.5 -154.5t157.5 -404.5q0 -248 -158.5 -404.5t-406.5 -156.5zM1524 956q-172 0 -280.5 -109.5t-108.5 -281.5q0 -170 109.5 -279.5t279.5 -109.5q174 0 285.5 108.5t111.5 280.5q0 166 -114.5 278.5t-282.5 112.5zM324 436q-99 0 -99 -43
q4 -8 49 -92q115 -125 297 -125h19q-4 113 -79 186.5t-187 73.5z" />
    <glyph glyph-name="uni1007" unicode="&#x1007;" horiz-adv-x="1247" 
d="M1094 80q-50 10 -129 49q-43 23 -77 79t-34 105v29l-68 20q-84 17 -143 103q-57 78 -61 168q-11 174 135 293q-92 26 -154 26q-168 0 -277.5 -111.5t-109.5 -277.5q0 -168 103.5 -277.5t271.5 -109.5q74 0 184 21l25 -166q-98 -31 -197 -31q-246 0 -402.5 158.5
t-156.5 404.5q0 244 156.5 401.5t402.5 157.5q262 0 417 -145.5t155 -407.5q0 -61 -41 -190q-25 -27 -76 -41q0 -43 8 -57q12 -31 53 -41l99 -25zM829 860q-96 -88 -98 -209q-2 -84 72 -131q63 -45 149 -41q13 68 13 115q0 164 -136 266z" />
    <glyph glyph-name="uni1008" unicode="&#x1008;" horiz-adv-x="1564" 
d="M557 0q-246 0 -403.5 158.5t-157.5 404.5q0 244 157.5 401.5t403.5 157.5t403.5 -156.5t157.5 -402.5t-158.5 -404.5t-402.5 -158.5zM557 952q-106 0 -201 -55q125 -137 127 -334q-20 -194 -157 -319q104 -74 231 -74q170 0 282.5 111.5t112.5 281.5q0 168 -112.5 278.5
t-282.5 110.5zM252 803q-86 -111 -86 -240q0 -112 61 -209q88 78 111 215q-12 136 -86 234zM654 -755q-131 28 -135 125l-2 90v640h168v-681l563 -55v1758h170v-1853q0 -92 -46 -97.5t-718 73.5z" />
    <glyph glyph-name="uni1009" unicode="&#x1009;" horiz-adv-x="1241" 
d="M1995 -778q-47 -35 -99 -45q-32 -6 -120 -6h-1489q-285 0 -283 283l2 902l23 4l149 82q160 -272 387 -272q172 0 281.5 109.5t109.5 283.5q0 168 -110.5 280.5t-280.5 112.5q-227 0 -387 -274l-147 80q209 362 534 362q248 0 406.5 -157.5t158.5 -403.5
q0 -252 -157.5 -409.5t-407.5 -157.5q-213 0 -383 149v-685q0 -117 107 -117h1491q57 0 73 12q31 15 31 64v151h178v-147q0 -147 -67 -201z" />
    <glyph glyph-name="uni100A" unicode="&#x100a;" horiz-adv-x="2187" 
d="M166 385l4 -4l8 12v-24q162 -203 357 -203q170 0 280.5 99.5t110.5 266.5v62q0 164 -113 261t-278 97q-222 0 -383 -266l-148 86l43 76q152 274 488 274q249 0 407 -157.5t158 -407.5v-31q0 -168 112.5 -265t280.5 -97q172 0 284.5 109.5t112.5 283.5q0 168 -113.5 281.5
t-283.5 113.5q-72 0 -221 -55l-55 160l79 30q80 31 197 31q248 0 406.5 -157.5t158.5 -403.5t-160.5 -406.5t-404.5 -160.5q-311 0 -481 266q-170 -262 -477 -262q-195 0 -357 123v-657q0 -117 109 -117h1489q104 0 104 76v151h178v-147q0 -252 -284 -252h-1487
q-287 0 -287 283v804l121 86z" />
    <glyph glyph-name="uni100B" unicode="&#x100b;" horiz-adv-x="1216" 
d="M1233 -847h-182q-123 0 -123 143v287q-107 -62 -295 -62q-51 0 -117 13q-197 36 -248 69q-159 55 -159 195q0 73 48 123.5t124 50.5q41 0 94 -21q33 0 172 -28q276 0 338 118q8 8 12 14q0 17 -27 17q-28 0 -135 -54q-200 -24 -231 -24q-232 0 -373 172q-131 160 -131 397
q0 250 155.5 405.5t407.5 155.5q328 0 531 -362l-150 -86q-156 280 -381 280q-168 0 -277.5 -113.5t-109.5 -279.5q0 -172 108.5 -282.5t278.5 -110.5h31q8 -4 20 -4q80 37 234 78q221 10 221 -185q0 -83 -39 -136l-123 -105q-108 -67 -360 -67h-6q-127 0 -215 49
q-13 -6 -13 -15q0 -43 238 -90q207 -8 455 121q14 6 30 6q54 0 58 -86q-2 -24 -2 -135v-237q0 -56 45 -50h98z" />
    <glyph glyph-name="uni100C" unicode="&#x100c;" horiz-adv-x="1222" 
d="M950 682q-157 274 -385 274q-170 0 -279.5 -112.5t-109.5 -280.5q0 -170 109.5 -281.5t279.5 -111.5q228 0 385 272l142 -80v-964q2 -14 2 -28q0 -78 -59.5 -138.5t-137.5 -60.5h-664q-227 0 -227 199v4q0 209 238 209h57l25 -166q-119 0 -148 -41q2 -14 23 -27
q41 -10 86 -10h524q115 0 115 115v669q-166 -127 -361 -127q-248 0 -404.5 159.5t-156.5 407.5q0 246 156.5 403.5t404.5 157.5q328 0 529 -362z" />
    <glyph glyph-name="uni100D" unicode="&#x100d;" horiz-adv-x="1222" 
d="M1051 -829q-125 0 -125 141v506q-199 -74 -373 -69q-313 6 -487 174q-41 53 -41 136q0 193 219 185q45 -4 129 -47q41 -23 106 -31q17 0 19 4h37q170 0 280.5 111.5t110.5 281.5q0 166 -113 279.5t-278 113.5q-234 0 -388 -274l-147 80q205 362 535 362q249 0 403 -155.5
t154 -405.5q0 -264 -146 -420q-151 -163 -411 -147l-175 22q-108 54 -139 54q-33 0 -14 -31q61 -118 344 -118h2q82 0 172 16q127 23 152 49q75 30 112 30q98 0 103 -153v0v-503q0 -35 43 -29h98v-162h-182z" />
    <glyph glyph-name="uni100E" unicode="&#x100e;" horiz-adv-x="1247" 
d="M563 0q-248 0 -407.5 157.5t-159.5 405.5q0 131 84 230q37 43 190 159q13 11 19 17h-8l2 -4l6 16l-31 14q-41 0 -98 -45l-51 137q75 60 190 60q63 0 121.5 -54.5t58.5 -117.5q0 -76 -98 -152q-12 -14 -148 -116q-67 -68 -67 -144q0 -174 111.5 -283.5t285.5 -109.5
q166 0 277.5 112.5t111.5 280.5q0 230 -278 389l76 142l77 -37q291 -139 291 -494q0 -248 -154.5 -405.5t-400.5 -157.5z" />
    <glyph glyph-name="uni100F" unicode="&#x100f;" horiz-adv-x="2455" 
d="M1370 479h-2v-196q0 -93 -58.5 -158.5t-148.5 -65.5q-94 0 -149.5 64.5t-55.5 159.5v329q-20 154 -127.5 249t-263.5 95q-174 0 -286.5 -109.5t-112.5 -281.5q0 -233 287 -383l-84 -151l-74 41q-299 159 -299 493q0 252 157.5 405.5t411.5 153.5q246 0 422 -186
q60 111 174 111q111 0 178 -111q168 186 418 186q256 0 414 -151.5t158 -407.5q0 -327 -363 -530l-86 147q281 156 281 383q0 176 -114 283.5t-290 107.5q-166 0 -276.5 -111.5t-110.5 -279.5v-86zM1196 823q0 54 -35 54q-37 0 -37 -54v-540q0 -56 37 -56q35 0 35 56v540z
" />
    <glyph glyph-name="uni1010" unicode="&#x1010;" horiz-adv-x="2217" 
d="M1524 4q-113 0 -242 55l64 154q116 -37 178 -37q174 0 285.5 108.5t111.5 280.5q0 166 -114.5 278.5t-282.5 112.5q-172 0 -280.5 -109.5t-108.5 -281.5v-18l-5 -6q-12 -246 -166.5 -391.5t-400.5 -145.5q-248 0 -407.5 156.5t-159.5 404.5q0 252 156.5 405.5
t410.5 153.5q305 0 481 -260q173 260 480 260q250 0 407.5 -154.5t157.5 -404.5q0 -248 -158.5 -404.5t-406.5 -156.5zM563 956q-172 0 -284.5 -110.5t-112.5 -280.5t112.5 -279.5t284.5 -109.5q168 0 278.5 109.5t110.5 279.5t-110.5 280.5t-278.5 110.5z" />
    <glyph glyph-name="uni1011" unicode="&#x1011;" horiz-adv-x="2217" 
d="M1524 4q-307 0 -480 264q-174 -264 -481 -264q-248 0 -407.5 156.5t-159.5 404.5q0 252 156.5 405.5t410.5 153.5q305 0 481 -260q173 260 480 260q250 0 407.5 -154.5t157.5 -404.5q0 -248 -158.5 -404.5t-406.5 -156.5zM1524 956q-172 0 -280.5 -109.5t-108.5 -281.5
q0 -170 109.5 -279.5t279.5 -109.5q174 0 285.5 108.5t111.5 280.5q0 166 -114.5 278.5t-282.5 112.5zM563 956q-172 0 -284.5 -110.5t-112.5 -280.5t112.5 -279.5t284.5 -109.5q168 0 278.5 109.5t110.5 279.5t-110.5 280.5t-278.5 110.5z" />
    <glyph glyph-name="uni1012" unicode="&#x1012;" horiz-adv-x="1198" 
d="M569 459v2h-16l4 166h98q213 0 242 159q-27 166 -399 166q-242 0 -310 -141q-8 -14 -8 -27q0 -22 39 -22h37l-16 -156h-21q-209 0 -209 197q0 164 172 252q133 67 316 67q528 0 571 -323v-6q0 -148 -119 -242q135 -90 119 -246q-31 -305 -571 -305q-158 0 -297 55
q-181 72 -189 209l-2 53l168 39q4 -77 55 -116q95 -70 265 -70q387 0 399 154q12 133 -264 135q-23 2 -64 0z" />
    <glyph glyph-name="uni1013" unicode="&#x1013;" horiz-adv-x="1247" 
d="M563 0q-252 0 -409.5 155.5t-157.5 407.5q0 244 160.5 401.5t406.5 157.5q244 0 399.5 -157.5t155.5 -401.5q0 -246 -156.5 -404.5t-398.5 -158.5zM563 952q-172 0 -284.5 -110.5t-112.5 -278.5q0 -131 74 -233q129 137 323 159q193 0 334 -129q55 93 55 203
q0 166 -111.5 277.5t-277.5 111.5zM565 342q-135 -18 -217 -111q101 -61 215 -61q125 0 236 86q-94 72 -234 86z" />
    <glyph glyph-name="uni1014" unicode="&#x1014;" horiz-adv-x="1247" 
d="M645 -6l6 -821l-172 -2v823q-225 -4 -303 22q-160 47 -172 199q-28 320 328 320q123 0 210 -63.5t103 -182.5v-125q295 0 295 115q0 100 -211 198q-102 45 -326 154q-188 88 -188 254q0 237 336 237q96 0 180 -30q152 -56 152 -177q0 -22 -29 -45h-168q19 23 19 37
q0 8 -7 21q-22 12 -147 24q-25 2 -45 2q-119 0 -119 -75q0 -68 148 -129l208 -88q375 -168 375 -392q0 -270 -473 -276zM449 326q-39 36 -119 36q-64 0 -109 -34q-51 -37 -45 -97q6 -77 303 -67q-4 135 -30 162z" />
    <glyph glyph-name="uni1015" unicode="&#x1015;" horiz-adv-x="1247" 
d="M563 0q-252 0 -409.5 155.5t-157.5 407.5q0 346 328 506l106 -129q-264 -162 -264 -377q0 -174 111.5 -283.5t285.5 -109.5q166 0 277.5 112.5t111.5 280.5q0 211 -264 375l117 125l49 -25q264 -131 264 -475q0 -248 -154.5 -405.5t-400.5 -157.5z" />
    <glyph glyph-name="uni1016" unicode="&#x1016;" horiz-adv-x="1247" 
d="M563 0q-248 0 -407.5 157.5t-159.5 405.5q0 346 328 506l106 -131q-264 -164 -264 -375q0 -174 111.5 -283.5t285.5 -109.5q260 0 359 246q-252 14 -353 211q-53 100 -53 202q0 105 51 177q60 79 162 79q55 0 125 -47q264 -174 264 -475q0 -248 -154.5 -405.5
t-400.5 -157.5zM952 563q0 195 -204 338q-15 8 -23 8q-49 0 -49 -98q0 -61 43 -149q88 -115 233 -115v16z" />
    <glyph glyph-name="uni1017" unicode="&#x1017;" horiz-adv-x="1247" 
d="M565 0q-248 0 -403.5 157.5t-155.5 405.5q0 320 320 500l28 -12l27 -56v-8l4 -6q76 -96 180 -96q129 0 191 139l22 49h27l49 -29q276 -155 276 -481q0 -252 -157.5 -407.5t-407.5 -155.5zM815 866q-67 -112 -227 -123q-189 -12 -275 111q-137 -115 -137 -291
q0 -168 111.5 -280.5t277.5 -112.5q172 0 282.5 109.5t110.5 283.5q0 182 -143 303z" />
    <glyph glyph-name="uni1018" unicode="&#x1018;" horiz-adv-x="2217" 
d="M1522 0q-105 0 -197 35l-78 26l56 160q149 -51 219 -51q172 0 285.5 109.5t113.5 283.5q0 168 -114.5 278.5t-284.5 110.5t-279 -96q-113 -102 -113 -268v-25q0 -252 -158.5 -409.5t-408.5 -157.5q-327 0 -485 274l-43 74l147 90q158 -268 381 -268q162 0 275 94
q118 102 118 262v66q0 164 -113.5 264t-279.5 100q-188 0 -362 -221l-140 109q224 278 502 278q305 0 479 -258q170 262 480 262q250 0 408.5 -155.5t158.5 -403.5q0 -254 -157.5 -408.5t-409.5 -154.5z" />
    <glyph glyph-name="uni1019" unicode="&#x1019;" horiz-adv-x="1247" 
d="M563 0q-252 0 -409.5 155.5t-157.5 407.5q0 346 328 506l106 -129q-264 -162 -264 -377q0 -131 74 -233q135 145 323 153q185 4 334 -127q55 95 55 207q0 211 -264 375l117 125l49 -25q264 -131 264 -475q0 -248 -154.5 -405.5t-400.5 -157.5zM565 342
q-135 -18 -217 -111q101 -61 215 -61q125 0 236 86q-94 76 -234 86z" />
    <glyph glyph-name="uni101A" unicode="&#x101a;" horiz-adv-x="2217" 
d="M1524 4q-307 0 -480 264q-174 -264 -481 -264q-248 0 -407.5 156.5t-159.5 404.5q0 334 299 496l74 39l84 -148q-287 -155 -287 -387q0 -170 112.5 -279.5t284.5 -109.5q168 0 278.5 109.5t110.5 279.5q0 228 -270 387l78 142q348 -197 364 -500h11v-29
q0 -170 109.5 -279.5t279.5 -109.5q174 0 285.5 108.5t111.5 280.5q0 166 -114.5 278.5t-282.5 112.5q-31 0 -117 -18q-25 115 -31 168q74 18 148 18q250 0 407.5 -154.5t157.5 -404.5q0 -248 -158.5 -404.5t-406.5 -156.5z" />
    <glyph glyph-name="uni101B" unicode="&#x101b;" horiz-adv-x="1247" 
d="M1042 -829q-84 0 -84 98v1294q0 168 -110.5 280.5t-278.5 112.5q-170 0 -280.5 -112.5t-110.5 -280.5v-12q62 18 135 18q183 0 318 -104q147 -113 147 -289q0 -186 -182 -186q-35 0 -64 6q-247 16 -386.5 167.5t-139.5 399.5q0 246 158 403.5t405 157.5q246 0 406 -157.5
t160 -403.5v-1224h110v-168h-203zM606 201q0 116 -125 184q-106 59 -229 51l-43 -14q8 -35 35 -68q137 -194 291 -194q36 0 55 16l16 12v13z" />
    <glyph glyph-name="uni101C" unicode="&#x101c;" horiz-adv-x="2217" 
d="M1524 0q-262 0 -417 150.5t-155 412.5q0 168 -110.5 278.5t-278.5 110.5t-282.5 -111.5t-114.5 -277.5q0 -184 114.5 -298.5t297.5 -104.5l-27 -170l-84 16q-213 39 -342 189.5t-129 367.5q0 246 159.5 402.5t407.5 156.5q250 0 408.5 -155.5t158.5 -403.5
q0 -174 111 -283.5t283 -109.5q170 0 283.5 111.5t113.5 281.5q0 168 -113.5 278.5t-283.5 110.5q-58 0 -181 -43l13 191q86 22 168 22q248 0 406.5 -156.5t158.5 -402.5q0 -252 -157.5 -407.5t-407.5 -155.5z" />
    <glyph glyph-name="uni101D" unicode="&#x101d;" horiz-adv-x="1247" 
d="M563 0q-252 0 -409.5 155.5t-157.5 407.5q0 244 160.5 401.5t406.5 157.5q244 0 399.5 -157.5t155.5 -401.5q0 -246 -156.5 -404.5t-398.5 -158.5zM563 952q-172 0 -284.5 -110.5t-112.5 -278.5q0 -174 111.5 -283.5t285.5 -109.5q166 0 277.5 112.5t111.5 280.5
q0 166 -111.5 277.5t-277.5 111.5z" />
    <glyph glyph-name="uni101E" unicode="&#x101e;" horiz-adv-x="2217" 
d="M1522 -4q-310 0 -480 262q-174 -258 -479 -258q-278 0 -502 283l140 104q174 -217 362 -217q168 0 280.5 98.5t112.5 266.5v61q0 162 -118 262q-113 94 -275 94q-223 0 -381 -264l-147 86l43 74q158 274 485 274q250 0 408.5 -155.5t158.5 -403.5v-31q0 -165 115 -268
q109 -98 277 -98q172 0 285.5 111.5t113.5 285.5q0 168 -114.5 278.5t-284.5 110.5q-70 0 -219 -55l-56 164l78 26q84 31 197 31q256 0 411.5 -150.5t155.5 -404.5q0 -252 -158.5 -409.5t-408.5 -157.5z" />
    <glyph glyph-name="uni101F" unicode="&#x101f;" horiz-adv-x="2217" 
d="M1522 -4q-74 0 -148 20q8 58 31 172q84 -22 117 -22q166 0 279.5 114.5t113.5 282.5q0 166 -113.5 277.5t-279.5 111.5q-174 0 -283 -100t-109 -270v-19q0 -250 -158.5 -406.5t-408.5 -156.5q-254 0 -410.5 154.5t-156.5 408.5q0 352 330 510l104 -135
q-264 -164 -264 -375q0 -170 112.5 -281.5t284.5 -111.5q389 0 389 393v49q-18 181 -254 326l111 131l51 -31q111 -65 184 -172q173 256 478 256q245 0 405 -156.5t160 -402.5q0 -248 -160 -407.5t-405 -159.5z" />
    <glyph glyph-name="uni1020" unicode="&#x1020;" horiz-adv-x="1222" 
d="M950 682q-157 274 -385 274q-170 0 -279.5 -112.5t-109.5 -280.5q0 -170 109.5 -281.5t279.5 -111.5h31q8 -4 22 -4l19 4q68 29 215 74q223 8 223 -185q0 -41 -14 -87q-103 -205 -514 -223q-187 -9 -371 69v-364q0 -115 111 -115h530q39 0 90 10q15 6 15 31
q-25 37 -150 37l31 166h51q238 0 238 -209v-4q0 -199 -226 -199h-665q-84 0 -144.5 71.5t-50.5 155.5v455q0 165 103 165q114 0 116 -34q158 -61 322 -61h4q274 0 344 112q2 14 2 20q0 17 -27 17q-20 0 -65 -23l-64 -31q-39 -18 -67 -22h-109q-248 0 -404.5 159.5
t-156.5 407.5q0 246 156.5 403.5t404.5 157.5q328 0 529 -362z" />
    <glyph glyph-name="uni1021" unicode="&#x1021;" horiz-adv-x="2086" 
d="M539 453v8h-17l4 166h101q221 0 243 159q-26 166 -366 166q-240 0 -314 -141q-8 -14 -8 -25q0 -24 39 -24h35l-12 -156h-23q-211 0 -211 197q0 170 170 254q133 65 324 65q334 0 479 -182q168 178 416 178q196 0 358 -131q201 -166 201 -430q0 -201 -133 -360
q-168 -203 -426 -203q-94 0 -185 29q-40 10 -40 67q0 107 6 125q30 94 71 129q142 123 271 123q137 0 227 -74q39 74 39 164q0 170 -110.5 282.5t-278.5 112.5q-248 0 -361 -223q-22 -102 -112 -178q137 -90 123 -246q-31 -305 -545 -305q-162 0 -301 55q-183 72 -191 209
l-2 53l168 39q2 -43 12 -98q21 -39 146 -68q94 -20 168 -20q360 0 373 154q8 133 -271 135q-22 2 -67 -6zM1534 342q-84 0 -160 -98q-14 -17 -31 -78q33 -2 56 -2q141 0 291 135q-56 43 -156 43z" />
    <glyph glyph-name="uni1023" unicode="&#x1023;" horiz-adv-x="2217" 
d="M2038 295h-203q88 133 86 240q-16 391 -397 391q-170 0 -279.5 -110.5t-109.5 -280.5v-27q-43 -14 -43 -80q0 -102 -13 -133h-196q69 102 69 240q0 170 -110.5 280.5t-278.5 110.5t-282.5 -113t-114.5 -278q0 -134 84 -240h-201q-53 113 -53 240q0 243 160.5 401
t406.5 158q305 0 481 -265q173 265 480 265q243 0 404 -158t161 -401q0 -123 -51 -240zM1671 -829q-74 0 -109.5 18.5t-74.5 79.5v33q0 146 147 510v29q0 116 -74.5 189.5t-191.5 73.5q-115 0 -191.5 -74.5t-76.5 -188.5v-37q-60 -10 -74 -98q-18 -109 -45 -152l-121 109
q74 79 74 178q0 116 -78 189.5t-194 73.5q-119 0 -195 -73.5t-76 -189.5q0 -84 58 -158l-119 -117q-99 129 -99 275q0 184 122 305.5t309 121.5q219 0 352 -178q131 178 354 178q184 0 308 -121.5t124 -305.5v-31l-129 -381q-12 -37 -12 -53q0 -33 29 -43h112v-162h-129z
" />
    <glyph glyph-name="uni1024" unicode="&#x1024;" horiz-adv-x="2504" 
d="M2271 1536q-12 104 -76.5 171t-166.5 67q-115 0 -183.5 -70t-68.5 -182q0 -183 172 -238q125 0 233 -61q119 -68 160 -179q31 -83 31 -247v-1454q0 -76 -56.5 -124t-134.5 -48h-1931q-88 0 -156.5 61.5t-77.5 147.5q-14 129 68 209t215 80h1237q8 0 31 -6q135 -9 182 -54
l45 -86l-143 -104q-17 78 -115 78h-1266q-26 0 -56 -21.5t-30 -46.5q0 -31 28 -60.5t58 -29.5h1878q41 -6 56 37v1421q0 114 -13 168q-22 92 -172 129h-34l10 -2l-31 8q-162 28 -259 143t-97 279q0 180 119.5 298.5t304.5 118.5q157 0 267.5 -95t143.5 -253zM1130 508h-6
q-16 -311 -362 -512l-86 151q280 158 280 388q0 170 -110.5 281.5t-280.5 111.5q-174 0 -286.5 -110.5t-112.5 -282.5q0 -234 287 -388l-84 -153l-74 41q-299 160 -299 500q0 249 159.5 407t409.5 158q309 0 484 -266q165 266 479 266q246 0 403.5 -159t157.5 -406v-1128
h-168v1128q0 172 -110.5 282.5t-282.5 110.5q-174 0 -286 -110.5t-112 -282.5v-27z" />
    <glyph glyph-name="uni1025" unicode="&#x1025;" horiz-adv-x="1247" 
d="M965 -823q-29 -6 -123 -6h-555q-285 0 -283 283l2 902l25 4l145 82q156 -272 387 -272q168 0 278.5 111.5t110.5 281.5q0 166 -111.5 279.5t-277.5 113.5q-231 0 -387 -274l-145 80q205 362 532 362q248 0 403.5 -155.5t155.5 -405.5q0 -254 -153.5 -410.5t-405.5 -156.5
q-211 0 -381 149v-685q0 -117 105 -117h559q98 0 98 76v151h178v-147q0 -211 -157 -246z" />
    <glyph glyph-name="uni1026" unicode="&#x1026;" horiz-adv-x="1247" 
d="M965 -823q-29 -6 -123 -6h-555q-285 0 -283 283l2 902l25 4l145 82q156 -272 387 -272q168 0 278.5 111.5t110.5 281.5q0 166 -111.5 279.5t-277.5 113.5q-231 0 -387 -274l-145 80q205 362 532 362q248 0 403.5 -155.5t155.5 -405.5q0 -254 -153.5 -410.5t-405.5 -156.5
q-211 0 -381 149v-685q0 -117 105 -117h559q98 0 98 76v151h178v-147q0 -211 -157 -246zM613 1106q-174 0 -293.5 121t-119.5 297t120.5 295.5t296.5 119.5t292 -119.5t116 -295.5q0 -170 -121 -294t-291 -124zM613 1774q-110 0 -179 -70t-69 -180q0 -31 7 -70
q104 78 229 92q127 0 246 -80q6 37 6 58q0 108 -65.5 179t-174.5 71zM605 1411q-88 -10 -160 -68q74 -61 162 -61q98 0 176 74q-78 51 -178 55z" />
    <glyph glyph-name="uni1027" unicode="&#x1027;" horiz-adv-x="1247" 
d="M1087 760q0 -92 -86 -139q-71 -39 -167 -39q-95 0 -207 55q-176 86 -211 291q-240 -99 -240 -363q0 -262 242 -364q31 110 61 159q127 193 363 193q245 0 245 -174q0 -53 -79 -164q-154 -211 -443 -211q-248 0 -404.5 156.5t-156.5 404.5t156.5 403.5t404.5 155.5
q260 0 436 -217h5l43 -59q10 -25 45 -86zM565 956h-18v-6q0 -155 170 -202q16 -13 69 -13q95 0 109 37q-137 184 -330 184zM909 379q0 20 -88 20q-71 0 -151 -39q-117 -77 -123 -184h18q246 0 344 193v10z" />
    <glyph glyph-name="uni1029" unicode="&#x1029;" horiz-adv-x="2554" 
d="M2384 1505h-174v160q0 109 -80 109h-1843q-109 0 -109 -129v-2185q0 -117 109 -117h1818q101 0 101 76v1085h178v-1081q0 -252 -283 -252h-1814q-287 0 -287 283l-4 2205q0 283 291 283h1863q242 0 238 -252zM1812 -4q-310 0 -480 262q-174 -258 -479 -258
q-278 0 -502 283l140 104q174 -217 362 -217q168 0 280.5 98.5t112.5 266.5v61q0 162 -118 262q-113 94 -275 94q-223 0 -381 -264l-147 86l43 74q158 274 485 274q250 0 408.5 -155.5t158.5 -403.5v-31q0 -165 115 -268q109 -98 277 -98q172 0 285.5 111.5t113.5 285.5
q0 168 -114.5 278.5t-284.5 110.5q-70 0 -219 -55l-56 164l78 26q84 31 197 31q256 0 411.5 -150.5t155.5 -404.5q0 -252 -158.5 -409.5t-408.5 -157.5z" />
    <glyph glyph-name="uni102A" unicode="&#x102a;" horiz-adv-x="4865" 
d="M3628 1505h-174v160q0 109 -80 109h-1843q-109 0 -109 -129v-2185q0 -117 109 -117h1818q101 0 101 76v1085h178v-1081q0 -252 -283 -252h-1814q-287 0 -287 283l-4 2205q0 283 291 283h1863q242 0 238 -252zM3056 -4q-310 0 -480 262q-174 -258 -479 -258
q-278 0 -502 283l140 104q174 -217 362 -217q168 0 280.5 98.5t112.5 266.5v61q0 162 -118 262q-113 94 -275 94q-223 0 -381 -264l-147 86l43 74q158 274 485 274q250 0 408.5 -155.5t158.5 -403.5v-31q0 -165 115 -268q109 -98 277 -98q172 0 285.5 111.5t113.5 285.5
q0 168 -114.5 278.5t-284.5 110.5q-70 0 -219 -55l-56 164l78 26q84 31 197 31q256 0 411.5 -150.5t155.5 -404.5q0 -252 -158.5 -409.5t-408.5 -157.5zM950 682q-157 274 -385 274q-170 0 -279.5 -110.5t-109.5 -280.5q0 -252 242 -364q20 241 213 346q94 53 203 53
q106 0 176 -51q77 -55 77 -158q0 -65 -79 -176q-154 -211 -443 -211q-248 0 -404.5 156.5t-156.5 404.5t156.5 403.5t404.5 155.5q328 0 529 -362zM817 436q-115 0 -190.5 -73.5t-79.5 -186.5h18q183 0 299 125q17 31 45 68q4 16 4 24q0 43 -96 43zM4049 4q-51 0 -154 25
v174q96 -27 154 -27q172 0 280.5 108.5t108.5 280.5q0 166 -111.5 278.5t-277.5 112.5q-273 0 -377 -299q-2 -16 -26 -73l-152 90l12 43q117 407 543 407q243 0 402 -157.5t159 -401.5q0 -250 -155.5 -405.5t-405.5 -155.5zM4415 1548q-4 -2 -12 -2q-6 0 -6 6
q-8 99 -73.5 160.5t-166.5 61.5q-110 0 -179 -70t-69 -180q0 -105 69 -173.5t173 -68.5q23 0 68 6v-178q-35 -4 -62 -4q-174 0 -293.5 121t-119.5 297t120.5 295.5t296.5 119.5q160 0 267.5 -94t138.5 -254q-72 -28 -152 -43z" />
    <glyph glyph-name="uni102B" unicode="&#x102b;" horiz-adv-x="286" 
d="M-12 0v1536q0 16 -4 18q-35 220 -240 220q-110 0 -178.5 -71t-68.5 -181q0 -41 12 -84l-164 -37q-14 63 -14 121q0 178 119.5 297.5t298.5 119.5q168 0 281 -104t130 -270v-1565h-172z" />
    <glyph glyph-name="uni102C" unicode="&#x102c;" horiz-adv-x="980" 
d="M287 4q-51 0 -154 25v174q96 -27 154 -27q172 0 280.5 108.5t108.5 280.5q0 166 -111.5 278.5t-277.5 112.5q-273 0 -377 -299q-2 -16 -26 -73l-152 90l12 43q117 407 543 407q243 0 402 -157.5t159 -401.5q0 -250 -155.5 -405.5t-405.5 -155.5z" />
    <glyph glyph-name="uni102D" unicode="&#x102d;" 
d="M-692 1106q-174 0 -293.5 121t-119.5 297t120.5 295.5t296.5 119.5t292 -119.5t116 -295.5q0 -170 -121 -294t-291 -124zM-692 1774q-110 0 -179 -70t-69 -180q0 -105 69 -173.5t173 -68.5q109 0 177.5 66.5t68.5 175.5q0 108 -65.5 179t-174.5 71z" />
    <glyph glyph-name="uni102E" unicode="&#x102e;" 
d="M-692 1106q-174 0 -293.5 121t-119.5 297t120.5 295.5t296.5 119.5t292 -119.5t116 -295.5q0 -170 -121 -294t-291 -124zM-692 1774q-110 0 -179 -70t-69 -180q0 -31 7 -70q104 78 229 92q127 0 246 -80q6 37 6 58q0 108 -65.5 179t-174.5 71zM-700 1411
q-88 -10 -160 -68q74 -61 162 -61q98 0 176 74q-78 51 -178 55z" />
    <glyph glyph-name="uni102F" unicode="&#x102f;" 
d="M-692 -829q-80 0 -80 98v741h164v-671h168v-168h-252z" />
    <glyph glyph-name="uni1030" unicode="&#x1030;" 
d="M-550 -829q-76 0 -76 98v741h168v-671h153v-168h-245zM-894 -829v839h165v-839h-165z" />
    <glyph glyph-name="uni1031" unicode="&#x1031;" horiz-adv-x="1247" 
d="M950 682q-157 274 -385 274q-170 0 -279.5 -110.5t-109.5 -280.5q0 -252 242 -364q20 241 213 346q94 53 203 53q106 0 176 -51q77 -55 77 -158q0 -65 -79 -176q-154 -211 -443 -211q-248 0 -404.5 156.5t-156.5 404.5t156.5 403.5t404.5 155.5q328 0 529 -362zM817 436
q-115 0 -190.5 -73.5t-79.5 -186.5h18q183 0 299 125q17 31 45 68q4 16 4 24q0 43 -96 43z" />
    <glyph glyph-name="uni1032" unicode="&#x1032;" horiz-adv-x="6" 
d="M-356 1198l-833 387l84 178l841 -381z" />
    <glyph glyph-name="uni1033" unicode="&#x1033;" horiz-adv-x="286" 
d="M78 -829q-78 0 -78 98v1853h164v-1783h137v-168h-223z" />
    <glyph glyph-name="uni1034" unicode="&#x1034;" horiz-adv-x="571" 
d="M354 -829q-73 0 -73 98v1853h168v-1783h169v-168h-264zM0 -829v1951h166v-1951h-166z" />
    <glyph glyph-name="uni1036" unicode="&#x1036;" 
d="M-669 1233q-90 0 -151.5 60.5t-61.5 150.5q0 92 60.5 153.5t152.5 61.5t154.5 -61.5t62.5 -153.5q0 -90 -63.5 -150.5t-153.5 -60.5zM-669 1511q-66 0 -66 -67q0 -68 66 -68q69 0 69 68q0 67 -69 67z" />
    <glyph glyph-name="uni1037" unicode="&#x1037;" 
d="M-687 -546q-91 0 -152 62.5t-61 152.5q0 92 60 153.5t153 61.5q92 0 154.5 -61.5t62.5 -153.5t-62.5 -153.5t-154.5 -61.5zM-687 -264q-66 0 -66 -67q0 -68 66 -68q69 0 69 68q0 67 -69 67z" />
    <glyph glyph-name="uni1038" unicode="&#x1038;" horiz-adv-x="552" 
d="M213 633q-96 0 -156.5 61.5t-60.5 157.5q0 92 61.5 154.5t155.5 62.5q92 0 153.5 -62.5t61.5 -154.5q0 -96 -60.5 -157.5t-154.5 -61.5zM213 41q-96 0 -156.5 60.5t-60.5 156.5q0 92 61.5 155.5t155.5 63.5t154.5 -61.5t60.5 -157.5t-60.5 -156.5t-154.5 -60.5zM213 922
q-66 0 -66 -70q0 -66 66 -66q70 0 70 66q0 70 -70 70zM213 326q-66 0 -66 -68q0 -70 66 -70q70 0 70 70q0 68 -70 68z" />
    <glyph glyph-name="uni1039" unicode="&#x1039;" 
d="M-434 1548q-4 -2 -12 -2q-6 0 -6 6q-8 99 -73.5 160.5t-166.5 61.5q-110 0 -179 -70t-69 -180q0 -105 69 -173.5t173 -68.5q23 0 68 6v-178q-35 -4 -62 -4q-174 0 -293.5 121t-119.5 297t120.5 295.5t296.5 119.5q160 0 267.5 -94t138.5 -254q-72 -28 -152 -43z" />
    <glyph glyph-name="uni103A" unicode="&#x103a;" horiz-adv-x="286" 
d="M61 -823q-16 0 -45 6l-290 62q-131 28 -135 125l-2 90v790h168v-831l233 -55v1758h170v-1853q0 -92 -99 -92z" />
    <glyph glyph-name="uni103B" unicode="&#x103b;" horiz-adv-x="288" 
d="M1413 1505h-178v160q0 109 -74 109h-874q-66 0 -88 -35q-17 -27 -17 -94v-2185q0 -117 105 -117h848q98 0 98 76v1023h180v-1019q0 -252 -283 -252h-843q-287 0 -287 283l-4 2205q0 283 291 283h897q237 0 233 -252z" />
    <glyph glyph-name="uni103C" unicode="&#x103c;" horiz-adv-x="6" 
d="M-667 -839q-176 0 -298 123t-122 299q0 180 121 301.5t299 121.5q180 0 302 -121.5t122 -301.5q0 -178 -122 -300t-302 -122zM-667 -153q-113 0 -185.5 -75t-72.5 -189q0 -111 73.5 -184.5t184.5 -73.5q115 0 189.5 71.5t74.5 186.5q0 114 -74.5 189t-189.5 75z" />
    <glyph glyph-name="uni103D" unicode="&#x103d;" 
d="M-669 -829h-256v168h170v671h166v-741q0 -98 -80 -98z" />
    <glyph glyph-name="uni1040" unicode="&#x1040;" horiz-adv-x="1247" 
d="M463 0q-152 0 -309.5 155.5t-157.5 407.5q0 244 160.5 401.5t306.5 157.5v-170q-72 0 -184.5 -110.5t-112.5 -278.5q0 -174 111.5 -283.5t185.5 -109.5v-170zM663 0v170q66 0 177.5 112.5t111.5 280.5q0 166 -111.5 277.5t-177.5 111.5v170q144 0 299.5 -157.5
t155.5 -401.5q0 -246 -156.5 -404.5t-298.5 -158.5z" />
    <glyph glyph-name="uni1041" unicode="&#x1041;" horiz-adv-x="1247" 
d="M563 4q-336 0 -489 285l-43 80l147 80q154 -273 385 -273q168 0 278.5 109.5t110.5 279.5q0 166 -111.5 278.5t-277.5 112.5q-231 0 -385 -274l-147 80q205 362 532 362q244 0 401.5 -157.5t157.5 -401.5q0 -248 -156.5 -404.5t-402.5 -156.5z" />
    <glyph glyph-name="uni1042" unicode="&#x1042;" horiz-adv-x="1247" 
d="M563 -829q-252 0 -409.5 157.5t-157.5 407.5v86h170v-86q0 -170 113.5 -283.5t283.5 -113.5q166 0 277.5 114.5t111.5 282.5v1308h166v-1308q0 -254 -151.5 -409.5t-403.5 -155.5z" />
    <glyph glyph-name="uni1043" unicode="&#x1043;" horiz-adv-x="1247" 
d="M563 -6q-106 0 -215 41l326 -782l-158 -68l-461 1126l105 43l37 31l10 -12h8l4 -17q156 -190 344 -190q166 0 277.5 111.5t111.5 279.5q0 170 -110.5 282.5t-278.5 112.5q-223 0 -385 -266l-143 86l43 76q151 274 485 274q252 0 403.5 -156.5t151.5 -408.5
q0 -248 -154.5 -405.5t-400.5 -157.5z" />
    <glyph glyph-name="uni1044" unicode="&#x1044;" horiz-adv-x="1247" 
d="M952 686q-164 266 -383 266q-170 0 -281.5 -112.5t-111.5 -282.5q0 -168 112.5 -279.5t280.5 -111.5q138 0 357 209v6l55 -25l92 -51l-459 -1120l-155 68l319 782q-104 -41 -209 -41q-245 0 -404 158.5t-159 404.5q0 250 155.5 407.5t407.5 157.5q340 0 482 -274l41 -76z
" />
    <glyph glyph-name="uni1045" unicode="&#x1045;" horiz-adv-x="1247" 
d="M563 -833q-252 0 -409.5 157.5t-157.5 407.5v90h170v-90q0 -168 112.5 -280.5t284.5 -112.5q168 0 278.5 112.5t110.5 280.5v825q0 170 -110.5 282.5t-278.5 112.5q-254 0 -368 -247q243 -29 344 -209q55 -103 55 -213q0 -103 -53 -172q-58 -80 -156 -80q-70 0 -176 78
q-213 151 -213 444v4q0 250 157.5 407.5t409.5 157.5q258 0 406.5 -143t148.5 -401v-846q0 -250 -153.5 -407.5t-401.5 -157.5zM166 578v-25q0 -184 129 -301q31 -16 67 -43q15 -2 25 -2q43 0 43 92q0 117 -73.5 194.5t-190.5 84.5z" />
    <glyph glyph-name="uni1046" unicode="&#x1046;" horiz-adv-x="1247" 
d="M563 0q-252 0 -409.5 157.5t-157.5 407.5v824q0 249 157.5 407t409.5 158q260 0 407.5 -154.5t147.5 -417.5h-166q-2 179 -107.5 291.5t-281.5 112.5q-174 0 -285.5 -112.5t-111.5 -284.5v-824q0 -172 111.5 -283.5t285.5 -111.5q144 0 248 90t139 236l-338 61
q-268 47 -270 252q-2 98 75 176t177 78q65 0 125 -31l102 -67l-114 -142q-52 62 -89 62q-30 0 -61 -25.5t-31 -54.5q0 -47 31 -57l492 -93q38 -4 69 -65v-25q0 -250 -153.5 -407.5t-401.5 -157.5z" />
    <glyph glyph-name="uni1047" unicode="&#x1047;" horiz-adv-x="1247" 
d="M1094 391l-211 -661q-31 -96 -31 -233q0 -164 100 -164q21 0 60 41l67 -154q-61 -53 -139 -53q-72 0 -137 47q-121 82 -121 283q0 254 256 949q14 41 14 111q0 170 -110.5 282.5t-278.5 112.5q-174 0 -285.5 -111.5t-111.5 -283.5q0 -219 268 -381l-90 -147l-74 45
q-274 170 -274 483q0 250 157.5 407.5t409.5 157.5t403.5 -156.5t151.5 -408.5q0 -90 -24 -166z" />
    <glyph glyph-name="uni1048" unicode="&#x1048;" horiz-adv-x="1247" 
d="M760 29l-86 147q278 152 278 381q0 170 -110.5 282.5t-278.5 112.5q-254 0 -368 -247q239 -21 344 -209q55 -103 55 -207q0 -96 -55 -172q-62 -82 -154 -82q-61 0 -176 82q-213 153 -213 440q0 246 159.5 403.5t407.5 157.5q242 0 398.5 -158.5t156.5 -402.5
q0 -326 -358 -528zM166 578v-21q0 -182 129 -299q31 -16 67 -43q15 -6 25 -6q43 0 43 96q0 117 -73.5 195t-190.5 78z" />
    <glyph glyph-name="uni1049" unicode="&#x1049;" horiz-adv-x="1247" 
d="M958 -669q-104 -107 -198 -142q-62 -22 -197 -22q-252 0 -409.5 157.5t-157.5 407.5v831q0 250 157.5 405.5t409.5 155.5q248 0 401.5 -155.5t153.5 -405.5v-28q-31 -60 -69 -62q-275 -55 -492 -94q-31 -10 -31 -55q0 -58 76 -80q43 -15 105 57l114 -141
q-90 -66 -102 -68q-57 -31 -125 -31q-100 0 -177 78t-75 178q2 203 270 252l338 62q-32 145 -136.5 235t-250.5 90q-172 0 -284.5 -112.5t-112.5 -280.5v-831q0 -168 112.5 -280.5t284.5 -112.5q176 0 281.5 112.5t107.5 290.5h166q0 -247 -160 -411z" />
    <glyph glyph-name="uni104A" unicode="&#x104a;" horiz-adv-x="417" 
d="M61 0v1032h160v-1032h-160z" />
    <glyph glyph-name="uni104B" unicode="&#x104b;" horiz-adv-x="688" 
d="M326 0v1032h170v-1032h-170zM61 0v1032h170v-1032h-170z" />
    <glyph glyph-name="uni104C" unicode="&#x104c;" horiz-adv-x="1220" 
d="M535 -4q-50 4 -179 22q-104 60 -131 60q-39 0 -18 -37q59 -118 344 -118v0q67 0 168 18q135 25 151 47q82 35 117 35q105 0 105 -162v-463q8 -84 -51.5 -155.5t-143.5 -71.5h-666q-227 0 -227 199v4q0 209 240 209h55l27 -170q-123 4 -150 -33q2 -12 21 -35q45 -6 86 -6
h526q117 0 117 115v364q-183 -67 -373 -67h-2q-166 0 -264 32q-113 37 -221 140q-41 53 -41 138q0 195 219 183q45 -4 118 -35q82 -37 117 -43q13 0 17 4h39q170 0 280.5 112.5t110.5 282.5q0 168 -113 280.5t-278 112.5q-234 0 -388 -272l-147 76q160 291 410 356
q-277 131 -277 404q0 178 119 297.5t299 119.5q158 0 268.5 -98t138.5 -256l-147 -49q-18 0 -18 12q-27 226 -242 226q-115 0 -183.5 -70t-68.5 -182q0 -109 69.5 -179.5t178.5 -70.5q16 0 65 6v-154q222 -34 351 -183.5t129 -375.5q0 -256 -150 -415q-154 -168 -407 -154z
" />
    <glyph glyph-name="uni104D" unicode="&#x104d;" horiz-adv-x="1503" 
d="M1272 1536q-27 238 -242 238q-108 0 -179 -73t-71 -179q0 -183 170 -238q307 0 393 -240q31 -86 31 -247v-1454q0 -74 -55 -123t-129 -49h-946q-88 0 -153.5 61.5t-74.5 147.5q-14 129 68 209t215 80h252l94 -13q57 -8 98 -43q13 -6 56 -90l-144 -104q-18 78 -120 78
h-267q-26 0 -53 -21.5t-27 -46.5q0 -35 24 -62.5t58 -27.5h877q41 -6 57 35v1423q0 114 -12 168q-23 92 -172 129h-25l4 -7l-34 13q-158 28 -255.5 144t-97.5 278q0 180 119 298.5t301 118.5q158 0 269.5 -96t142.5 -252zM958 -595v1160q0 168 -111.5 280.5t-277.5 112.5
q-170 0 -280.5 -111.5t-110.5 -281.5v-12q62 18 139 18q179 0 316 -106q147 -115 147 -289q0 -186 -180 -186q-35 0 -68 6q-245 16 -385.5 168.5t-140.5 400.5t158 409t405 161q250 0 408 -160t158 -410v-1160h-177zM608 201q0 118 -123 188q-108 60 -233 51l-43 -18
q16 -35 35 -68q131 -194 288 -194q33 0 62 16l14 12v13z" />
    <glyph glyph-name="uni104E" unicode="&#x104e;" horiz-adv-x="2924" 
d="M944 682q-156 274 -381 274q-170 0 -281.5 -112.5t-111.5 -280.5q0 -170 111.5 -281.5t281.5 -111.5q228 0 381 272l98 -51h7l43 -29v-1191h-170v952q-162 -127 -359 -127q-248 0 -405.5 159.5t-157.5 407.5q0 246 157.5 403.5t405.5 157.5q328 0 531 -362zM2253 289
q-60 -129 -205 -211q-137 -74 -287 -74q-248 0 -404.5 156.5t-156.5 404.5t156.5 403.5t404.5 155.5q328 0 529 -362l-144 -80q-157 274 -385 274q-170 0 -279.5 -110.5t-109.5 -280.5t109.5 -279.5t279.5 -109.5q228 0 385 273l144 -80zM2071 1548q-4 -2 -12 -2q-6 0 -6 6
q-8 99 -73.5 160.5t-166.5 61.5q-110 0 -179 -70t-69 -180q0 -105 69 -173.5t173 -68.5q23 0 68 6v-178q-35 -4 -62 -4q-174 0 -293.5 121t-119.5 297t120.5 295.5t296.5 119.5q160 0 267.5 -94t138.5 -254q-72 -28 -152 -43zM2567 633q-96 0 -156.5 61.5t-60.5 157.5
q0 92 61.5 154.5t155.5 62.5q92 0 153.5 -62.5t61.5 -154.5q0 -96 -60.5 -157.5t-154.5 -61.5zM2567 41q-96 0 -156.5 60.5t-60.5 156.5q0 92 61.5 155.5t155.5 63.5t154.5 -61.5t60.5 -157.5t-60.5 -156.5t-154.5 -60.5zM2567 922q-66 0 -66 -70q0 -66 66 -66q70 0 70 66
q0 70 -70 70zM2567 326q-66 0 -66 -68q0 -70 66 -70q70 0 70 70q0 68 -70 68z" />
    <glyph glyph-name="uni104F" unicode="&#x104f;" horiz-adv-x="1804" 
d="M1579 1540q-31 234 -252 234q-115 0 -181.5 -70t-66.5 -182q0 -183 174 -238q129 0 236 -59q115 -66 158 -181q28 -73 28 -241v-803h-170v803q0 125 -12 166q-18 88 -166 131h-33l2 -8l-30 12q-158 26 -255.5 141t-97.5 277q0 178 119 297.5t299 119.5q164 0 273.5 -96
t140.5 -258zM1210 0v823q-6 31 -63 31q-17 -4 -74 -33q19 -33 31 -49l-12 -10q0 -86 -88 -135q-72 -43 -164 -43q-107 0 -209 53q-174 84 -209 297q-246 -100 -246 -365q0 -266 242 -366q37 116 65 159q119 195 365 195q244 0 244 -178q0 -49 -80 -160q-154 -215 -443 -215
q-247 0 -406 159t-159 406q0 246 159 406t406 160q230 0 400 -183q94 74 174 74q203 0 239 -186v-840h-172zM569 958h-18v-6q0 -151 168 -196q20 -13 72 -13q94 0 106 31q-137 184 -328 184zM915 379q0 24 -92 24q-63 0 -149 -34q-119 -82 -123 -193h18q183 0 301 129
q17 23 39 64l6 4v6z" />
    <glyph glyph-name="uni105A" unicode="&#x105a;" horiz-adv-x="679" 
d="M508 1718l-47 45q-43 31 -113 31q-82 0 -135 -56.5t-53 -135.5l4 -1602h-170v1536q0 16 -4 18q-35 220 -241 220q-111 0 -178.5 -71t-67.5 -181q0 -41 8 -84l-166 -37q-14 63 -14 121q0 180 118.5 298.5t301.5 118.5q176 0 298 -122l23 -23q88 154 266 154q129 0 231 -88
z" />
    <glyph glyph-name="uni1060" unicode="&#x1060;" 
d="M-1099 -460h-4q-15 -221 -295 -369l-76 141q211 117 211 267q0 118 -76 190t-194 72q-113 0 -190 -74t-77 -188q0 -156 209 -267l-78 -141l-73 37q-224 113 -224 371q0 192 121 306.5t312 114.5q219 0 354 -176q131 176 350 176q193 0 312.5 -114.5t119.5 -306.5
q0 -191 -119.5 -305.5t-312.5 -114.5q-53 0 -121 14q10 53 17 166q86 -25 104 -25q115 0 190.5 76t75.5 189q0 114 -75.5 188t-190.5 74q-117 0 -193.5 -72t-76.5 -190v-39z" />
    <glyph glyph-name="uni1061" unicode="&#x1061;" 
d="M-673 -845q-138 0 -256 84q-131 92 -131 223q0 20 4 47q24 25 82 57q16 4 67 25q43 16 62 16q123 0 210 -64.5t103 -180.5q117 75 117 215q0 114 -72 189t-186 75q-148 0 -267 -201l-139 86q170 270 406 270q180 0 298.5 -119.5t118.5 -299.5q0 -181 -118.5 -301.5
t-298.5 -120.5zM-815 -520q-20 -2 -92 -26q72 -146 209 -146q27 0 43 4l53 15q-86 153 -213 153z" />
    <glyph glyph-name="uni1062" unicode="&#x1062;" 
d="M-495 -833l-98 127q194 119 194 260q0 113 -74.5 187.5t-187.5 74.5t-188.5 -73.5t-75.5 -188.5q0 -137 196 -260l-104 -123l-49 25q-203 100 -203 358q0 180 123 301t301 121q180 0 301 -121t121 -301q0 -260 -256 -387z" />
    <glyph glyph-name="uni1063" unicode="&#x1063;" 
d="M-820 -829q-221 0 -352 178q-136 -178 -355 -178q-190 0 -310 114.5t-120 305.5q0 90 68 170q32 37 141 125l-31 6q-8 0 -51 -27l-59 107q75 59 172 59q63 0 102 -41t39 -104q0 -72 -80 -129q-135 -94 -135 -166q0 -113 76 -186.5t188 -73.5q119 0 195 71.5t76 188.5
q0 153 -215 270l79 139l72 -34q203 -97 227 -334h2v-37q0 -117 77 -190.5t194 -73.5q114 0 191 74.5t77 189.5t-77 186.5t-191 71.5q-39 0 -131 -22l14 173q90 12 117 12q192 0 312.5 -115.5t120.5 -305.5q0 -188 -121.5 -306t-311.5 -118z" />
    <glyph glyph-name="uni1064" unicode="&#x1064;" horiz-adv-x="6" 
d="M-901 1696h4q5 90 61 146t144 56q109 0 166 -73l-76 -94q-36 41 -84 55q-94 0 -94 -98q-8 -33 37 -78l55 10q99 0 154 -74l-74 -96q-30 39 -78 47q-86 -4 -106 -98q0 -94 100 -99q51 -2 80 56q49 -41 78 -84q-84 -82 -164 -82q-94 0 -151.5 57.5t-57.5 153.5q0 80 60 151
q-50 74 -54 144z" />
    <glyph glyph-name="uni1065" unicode="&#x1065;" 
d="M-657 -841q-176 0 -299 121.5t-123 298.5q0 180 121 300.5t301 120.5t300 -120.5t120 -300.5q0 -179 -120 -299.5t-300 -120.5zM-657 -159q-14 0 -86 -23q55 -106 55 -233q0 -123 -55 -246q37 -20 86 -20q111 0 185.5 74.5t74.5 185.5q0 114 -72.5 188t-187.5 74z
M-845 -237q-70 -62 -70 -184q0 -129 70 -193q53 78 55 168q4 121 -55 209z" />
    <glyph glyph-name="uni1066" unicode="&#x1066;" horiz-adv-x="9" 
d="M-839 -831q-215 0 -350 174q-135 -178 -354 -178q-142 0 -260 80q-136 90 -136 225q0 61 70 125q45 6 117 24q6 -4 6 -8l-6 -6l12 -4l-6 25l-2 -2v6l-6 -6q303 0 334 -271q147 82 147 236q0 119 -76 190.5t-194 71.5q-150 0 -271 -195l-143 80q172 274 414 274
q215 0 354 -175q129 179 350 179q189 0 311.5 -118.5t122.5 -306.5q0 -191 -120.5 -305.5t-313.5 -114.5zM-839 -147q-115 0 -191.5 -75t-76.5 -189q0 -113 76.5 -185.5t191.5 -72.5t190.5 72.5t75.5 185.5q0 114 -75.5 189t-190.5 75zM-1693 -516q-74 0 -74 -18v-25
q52 -98 248 -112q-14 155 -174 155z" />
    <glyph glyph-name="uni1067" unicode="&#x1067;" 
d="M-348 -831q-215 0 -350 174q-135 -178 -354 -178q-142 0 -260 80q-136 90 -136 225q0 61 70 125q45 6 117 24q6 -4 6 -8l-6 -6l12 -4l-6 25l-2 -2v6l-6 -6q303 0 334 -271q147 82 147 236q0 119 -76 190.5t-194 71.5q-150 0 -271 -195l-143 80q172 274 414 274
q215 0 354 -175q129 179 350 179q189 0 311.5 -118.5t122.5 -306.5q0 -191 -120.5 -305.5t-313.5 -114.5zM-348 -147q-115 0 -191.5 -75t-76.5 -189q0 -113 76.5 -185.5t191.5 -72.5t190.5 72.5t75.5 185.5q0 114 -75.5 189t-190.5 75zM-1202 -516q-74 0 -74 -18v-25
q52 -98 248 -112q-14 155 -174 155z" />
    <glyph glyph-name="uni1068" unicode="&#x1068;" 
d="M-239 -792q-197 27 -191 199q-208 43 -208 239q0 113 61 176q-43 19 -80 19q-115 0 -186.5 -74t-71.5 -188q0 -111 68.5 -182.5t179.5 -71.5q55 0 151 18l21 -158q-86 -26 -166 -26q-176 0 -297 121.5t-121 298.5q0 182 120 301.5t302 119.5q189 0 307.5 -113.5
t118.5 -301.5q0 -162 -57 -178q-11 -74 55 -74q12 0 45 6zM-495 -221q-31 -49 -31 -123q0 -53 37 -91t90 -38h14q7 25 7 39q0 148 -117 213z" />
    <glyph glyph-name="uni1069" unicode="&#x1069;" horiz-adv-x="286" 
d="M-657 -841q-176 0 -299 121.5t-123 298.5q0 180 121 300.5t301 120.5t300 -120.5t120 -300.5q0 -76 -21 -148l246 -67v1758h172v-1853q0 -92 -99 -92q-26 0 -49 6l-372 99q-119 -123 -297 -123zM-657 -159q-14 0 -86 -23q55 -106 55 -233q0 -123 -55 -246q37 -20 86 -20
q111 0 185.5 74.5t74.5 185.5q0 114 -72.5 188t-187.5 74zM-845 -237q-70 -62 -70 -184q0 -129 70 -193q53 78 55 168q4 121 -55 209z" />
    <glyph glyph-name="uni106A" unicode="&#x106a;" horiz-adv-x="1247" 
d="M563 -4q-211 0 -381 149v-685q0 -117 105 -117h39v-172h-39q-285 0 -283 283l2 902l25 4l145 82q156 -272 387 -272q168 0 278.5 111.5t110.5 281.5q0 166 -111.5 279.5t-277.5 113.5q-231 0 -387 -274l-145 80q205 362 532 362q248 0 403.5 -155.5t155.5 -405.5
q0 -254 -153.5 -410.5t-405.5 -156.5z" />
    <glyph glyph-name="uni106B" unicode="&#x106b;" horiz-adv-x="2187" 
d="M166 385l4 -4l8 12v-24q162 -203 357 -203q170 0 280.5 99.5t110.5 266.5v62q0 164 -113 261t-278 97q-222 0 -383 -266l-148 86l43 76q152 274 488 274q249 0 407 -157.5t158 -407.5v-31q0 -168 112.5 -265t280.5 -97q172 0 284.5 109.5t112.5 283.5q0 168 -113.5 281.5
t-283.5 113.5q-72 0 -221 -55l-55 160l79 30q80 31 197 31q248 0 406.5 -157.5t158.5 -403.5t-160.5 -406.5t-404.5 -160.5q-311 0 -481 266q-170 -262 -477 -262q-195 0 -357 123v-657q0 -117 109 -117h1112v-172h-1112q-287 0 -287 283v804l121 86z" />
    <glyph glyph-name="uni106C" unicode="&#x106c;" 
d="M-405 -342q-84 -118 -281 -118q-118 0 -211 57q-108 68 -108 178q0 113 108 180q93 57 211 57q183 0 318 -171l-127 -49q-86 112 -191 112q-65 0 -118 -28q-62 -37 -62 -101q0 -61 62 -98q53 -31 118 -31q105 0 191 115l127 -49zM-311 -829h-123q-88 0 -88 80v149
q-84 -18 -166 -18q-170 0 -249 55l-52 37l64 90l80 -43q96 -30 159 -30q58 0 177 36q28 9 51 9q73 0 73 -86v-179h74v-100z" />
    <glyph glyph-name="uni106D" unicode="&#x106d;" 
d="M-534 -765l-12 -9l-92 129q104 84 104 209q0 117 -73.5 194t-190.5 77t-189.5 -74t-74.5 -191q-11 -366 -293 -366h-566q-112 0 -197 83t-85 197v217q0 287 276 287q115 0 199 -72.5t88 -185.5l-145 -29q-2 134 -142 134q-112 12 -112 -134v-208q0 -54 33.5 -99t84.5 -45
h566q129 0 129 178v33q0 195 118.5 309.5t311.5 114.5q180 0 301 -120t121 -300q0 -209 -160 -329z" />
    <glyph glyph-name="uni106E" unicode="&#x106e;" horiz-adv-x="1222" 
d="M1051 -829q-125 0 -125 141v506q-199 -74 -373 -69q-313 6 -487 174q-41 53 -41 136q0 193 219 185q45 -4 129 -47q41 -23 106 -31q17 0 19 4h37q170 0 280.5 111.5t110.5 281.5q0 166 -113 279.5t-278 113.5q-234 0 -388 -274l-147 80q205 362 535 362q249 0 403 -155.5
t154 -405.5q0 -262 -146 -418q-153 -167 -411 -149q-17 2 -175 22q-108 54 -139 54q-33 0 -14 -31q61 -118 344 -118h2q82 0 172 16q127 23 152 49q75 30 112 30q98 0 103 -153v0v-503q0 -35 43 -29h98v-162h-182zM836 -827q-64 0 -64 49v140q-86 -23 -176 -23h-6
q-74 0 -82 4q-72 2 -152 49q-18 15 -18 45q0 60 115 56q28 -9 104 -19h31q184 0 184 109q0 104 -184 104q-109 0 -189 -78l-75 29q110 111 264 111q272 0 272 -166q0 -90 -98 -135q-78 -37 -174 -35q-10 4 -84 6q-8 4 -31 10l-6 -12q43 -12 129 -12q35 0 104.5 13t104.5 13
q55 0 55 -55v-148h66v-55h-90z" />
    <glyph glyph-name="uni106F" unicode="&#x106f;" horiz-adv-x="1247" 
d="M774 35v-770h55v-88h-88q-67 0 -67 80v749q-62 -12 -111 -12q-252 0 -409.5 158.5t-157.5 410.5q0 223 285 393l30 19q-26 20 -30 20q-54 0 -111 -43l-66 140q70 55 195 55q68 0 124 -54.5t56 -121.5q0 -68 -98 -148q-6 -8 -148 -118q-67 -68 -67 -142
q0 -174 111.5 -285.5t285.5 -111.5q51 0 111 16v74q-111 -23 -152 -16l-61 10q-37 8 -105 63q-14 39 -14 68q0 86 92 86q15 0 88 -25h10q142 0 142 129q0 54 -36 91.5t-87 37.5q-72 0 -139 -116l-95 55q97 170 234 170q100 0 163.5 -67.5t63.5 -170.5q0 -104 -61 -172
q-64 -73 -166 -67q-29 -4 -72 10q-10 0 -12 2v10h-8l2 -10q18 -6 86 -14q86 2 121 26l20 17q19 2 43 6q43 -10 43 -80v-68q178 121 178 332q0 225 -278 387l76 144l77 -37q291 -139 291 -494q0 -379 -344 -528z" />
    <glyph glyph-name="uni1070" unicode="&#x1070;" 
d="M-706 -817l-84 144q213 110 213 268q0 121 -77 193.5t-197 72.5q-117 0 -192 -74.5t-75 -191.5v-207q0 -74 -47 -126t-123 -52q-73 0 -123.5 52t-50.5 126v240q-12 104 -88 168.5t-180 64.5q-119 0 -194.5 -72.5t-75.5 -193.5q0 -158 215 -270l-80 -146l-74 41
q-223 121 -223 375q0 188 122 308t310 120q176 0 307 -127q53 64 135 64q74 0 129 -64q135 127 308 127q192 0 314 -119t122 -309q0 -250 -291 -412zM-1257 -237q0 49 -31 49q-39 0 -39 -49v-369q0 -49 39 -49q31 0 31 49v369z" />
    <glyph glyph-name="uni1071" unicode="&#x1071;" 
d="M-1116 -460h-2q-16 -174 -130.5 -274.5t-291.5 -100.5q-184 0 -300.5 113.5t-116.5 298.5q0 188 114.5 297.5t302.5 109.5q213 0 344 -172q127 172 342 172q193 0 306.5 -108.5t113.5 -298.5q0 -189 -115.5 -300.5t-304.5 -111.5q-86 0 -196 51l57 139q96 -36 139 -36
q115 0 188 71.5t73 186.5q0 114 -73 182.5t-188 68.5q-114 0 -188 -68.5t-74 -182.5v-37zM-1540 -172q-112 0 -185 -68.5t-73 -182.5q0 -115 73 -186.5t185 -71.5q115 0 189 71.5t74 186.5q0 114 -74 182.5t-189 68.5z" />
    <glyph glyph-name="uni1072" unicode="&#x1072;" 
d="M-624 -460h-2q-17 -174 -131.5 -274.5t-290.5 -100.5q-184 0 -301 113.5t-117 298.5q0 188 115 297.5t303 109.5q213 0 344 -172q127 172 342 172q193 0 307 -108.5t114 -298.5q0 -189 -116.5 -300.5t-304.5 -111.5q-86 0 -197 51l58 139q96 -36 139 -36
q115 0 187.5 71.5t72.5 186.5q0 114 -72.5 182.5t-187.5 68.5t-188.5 -68.5t-73.5 -182.5v-37zM-1048 -172q-113 0 -185.5 -68.5t-72.5 -182.5q0 -115 72.5 -186.5t185.5 -71.5q115 0 188.5 71.5t73.5 186.5q0 114 -73.5 182.5t-188.5 68.5z" />
    <glyph glyph-name="uni1073" unicode="&#x1073;" 
d="M-816 -835q-219 0 -355 176q-131 -176 -352 -176q-192 0 -313 115.5t-121 306.5q0 190 121 304.5t313 114.5q221 0 352 -174q136 174 355 174q192 0 312 -114.5t120 -304.5q0 -191 -120 -306.5t-312 -115.5zM-816 -149q-117 0 -196 -74t-79 -190q0 -117 78 -190t197 -73
q114 0 189 74t75 189q0 114 -75 189t-189 75zM-1523 -149q-114 0 -189 -75t-75 -189q0 -115 75 -189t189 -74q117 0 194 73t77 190q0 116 -77 190t-194 74z" />
    <glyph glyph-name="uni1074" unicode="&#x1074;" 
d="M-330 -835q-221 0 -356 176q-133 -176 -350 -176q-189 0 -309.5 116.5t-120.5 305.5q0 190 118.5 304.5t311.5 114.5q217 0 350 -174q135 174 356 174q193 0 313.5 -114.5t120.5 -304.5q0 -191 -120.5 -306.5t-313.5 -115.5zM-330 -149q-121 0 -197.5 -72t-76.5 -192
q0 -117 77.5 -190t196.5 -73q115 0 190.5 74t75.5 189q0 114 -75.5 189t-190.5 75zM-1036 -149q-115 0 -190 -75t-75 -189q0 -115 75 -189t190 -74q116 0 193 73t77 190q0 116 -77 190t-193 74z" />
    <glyph glyph-name="uni1075" unicode="&#x1075;" 
d="M-907 -258v-6q23 6 41 8l-16 -153h-27q-170 0 -170 160q0 133 125 198q96 51 242 51q389 0 426 -251v-7q0 -98 -74 -170q84 -73 74 -178q-21 -235 -426 -235q-119 0 -228 45q-139 59 -139 164v55l154 31q16 -140 213 -140q256 0 266 97q8 73 -199 73q-8 0 -36 -6
q-7 13 -17 13l6 153q51 2 78 2h12q136 0 154 96q-25 99 -264 99q-158 0 -209 -99h14z" />
    <glyph glyph-name="uni1076" unicode="&#x1076;" 
d="M-661 -833q-178 0 -298 123t-120 301t121 299.5t297 121.5q180 0 301 -120.5t121 -300.5q0 -178 -121 -301t-301 -123zM-661 -147q-111 0 -185.5 -74.5t-74.5 -187.5q0 -82 24 -113q95 92 236 99q115 6 244 -99q20 47 20 113q0 115 -74.5 188.5t-189.5 73.5zM-661 -526
q-123 0 -184 -82q49 -65 184 -65t188 67q-51 82 -188 80z" />
    <glyph glyph-name="uni1077" unicode="&#x1077;" 
d="M-643 -854h-100q-197 0 -237 13q-127 39 -138 166q-18 245 264 245q218 0 242 -190q0 -25 4 -84q174 4 187 59q18 72 -148 148l-246 112q-143 86 -143 203q0 192 266 192q97 0 168 -36q88 -47 88 -133q0 -19 -22 -43h-166l31 26v17q-7 8 -105 12q-106 4 -106 -41
q0 -31 104 -76q201 -88 289 -147q155 -107 155 -230q0 -213 -387 -213zM-860 -593q-102 0 -92 -76q0 -29 180 -29q-2 64 -16 84.5t-72 20.5z" />
    <glyph glyph-name="uni1078" unicode="&#x1078;" 
d="M-657 -829q-182 0 -302 120t-120 300q0 262 256 385l99 -123q-191 -123 -191 -262q0 -111 73.5 -185.5t184.5 -74.5q115 0 189.5 73.5t74.5 186.5q0 139 -196 262l106 123l47 -25q203 -108 203 -360q0 -178 -122 -299t-302 -121z" />
    <glyph glyph-name="uni1079" unicode="&#x1079;" 
d="M-657 -829q-182 0 -302 120t-120 300q0 262 256 385l99 -123q-191 -123 -191 -262q0 -111 73.5 -185.5t184.5 -74.5q137 0 223 119q-186 77 -221 276q-14 94 27 166q45 80 137 80q12 0 25 -6l30 -15q203 -100 203 -360q0 -178 -122 -299t-302 -121zM-516 -178
q-18 -28 -18 -90q0 -155 135 -198q12 49 12 79q0 117 -129 209z" />
    <glyph glyph-name="uni107A" unicode="&#x107a;" 
d="M-657 -829q-182 0 -302 120t-120 300q0 231 250 379l21 -19l30 -41l6 -18q56 -57 117 -57q62 0 103 49l45 92h24l10 -10l31 -13q205 -122 205 -362q0 -180 -119 -300t-301 -120zM-479 -202q-67 -84 -178 -84q-108 0 -172 74q-86 -82 -86 -197q0 -113 71.5 -186.5
t186.5 -73.5q111 0 185.5 74.5t74.5 185.5q0 123 -82 207z" />
    <glyph glyph-name="uni107B" unicode="&#x107b;" 
d="M-874 -833q-75 0 -221 53l56 148q116 -43 165 -43q113 0 185.5 70.5t72.5 181.5q0 110 -72.5 182t-185.5 72q-104 0 -178 -62q-80 -65 -80 -168v-24q0 -189 -116.5 -300.5t-307.5 -111.5q-237 0 -362 199l-39 65l135 82q119 -190 266 -190q109 0 187 61.5t78 165.5v47
q0 103 -82 172q-76 64 -183 64q-122 0 -254 -160l-122 96q176 217 376 217q207 0 342 -168q129 168 340 168q191 0 306.5 -109.5t115.5 -297.5q0 -189 -115.5 -299.5t-306.5 -110.5z" />
    <glyph glyph-name="uni107C" unicode="&#x107c;" 
d="M-657 -829q-182 0 -302 120t-120 300q0 262 256 385l99 -123q-191 -123 -191 -262q0 -70 37 -141q92 77 217 77q123 0 227 -73q41 67 41 137q0 139 -196 262l106 123l47 -25q203 -108 203 -360q0 -178 -122 -299t-302 -121zM-657 -577q-72 -4 -158 -47q56 -45 158 -45
q74 0 160 51q-94 43 -160 41z" />
    <glyph glyph-name="uni107D" unicode="&#x107d;" horiz-adv-x="286" 
d="M61 -823q-16 0 -45 6l-290 62q-131 28 -135 125l166 49l233 -55v1758h170v-1853q0 -92 -99 -92z" />
    <glyph glyph-name="uni107E" unicode="&#x107e;" horiz-adv-x="288" 
d="M2384 1505h-174v160q0 109 -80 109h-1843q-109 0 -109 -129v-2185q0 -117 109 -117h1818q101 0 101 76v1085h178v-1081q0 -252 -283 -252h-1814q-287 0 -287 283l-4 2205q0 283 291 283h1863q242 0 238 -252z" />
    <glyph glyph-name="uni107F" unicode="&#x107f;" horiz-adv-x="288" 
d="M1130 -829h-843q-287 0 -287 283l-4 2205q0 283 291 283h282l-4 -168h-278q-66 0 -88 -35q-17 -27 -17 -94v-2185q0 -117 105 -117h848q98 0 98 76v1085h180v-1081q0 -252 -283 -252z" />
    <glyph glyph-name="uni1080" unicode="&#x1080;" horiz-adv-x="288" 
d="M2101 -829h-1814q-287 0 -287 283l-4 2205q0 283 291 283h1249v-168h-1249q-109 0 -109 -129v-2185q0 -117 109 -117h1818q101 0 101 76v1085h178v-1081q0 -252 -283 -252z" />
    <glyph glyph-name="uni1081" unicode="&#x1081;" horiz-adv-x="288" 
d="M1413 1505h-178v160q0 109 -74 109h-874q-66 0 -88 -35q-17 -27 -17 -94v-2185q0 -117 105 -117h350v-172h-350q-287 0 -287 283l-4 2205q0 283 291 283h897q237 0 233 -252z" />
    <glyph glyph-name="uni1082" unicode="&#x1082;" horiz-adv-x="288" 
d="M2384 1505h-174v160q0 109 -80 109h-1843q-109 0 -109 -129v-2185q0 -117 109 -117h1284l-4 -172h-1280q-287 0 -287 283l-4 2205q0 283 291 283h1863q242 0 238 -252z" />
    <glyph glyph-name="uni1083" unicode="&#x1083;" horiz-adv-x="288" 
d="M565 1774h-278q-66 0 -88 -35q-17 -27 -17 -94v-2185q0 -117 105 -117h350v-172h-350q-287 0 -287 283l-4 2205q0 283 291 283h282z" />
    <glyph glyph-name="uni1084" unicode="&#x1084;" horiz-adv-x="288" 
d="M1536 1774h-1249q-109 0 -109 -129v-2185q0 -117 109 -117h1284l-4 -172h-1280q-287 0 -287 283l-4 2205q0 283 291 283h1249v-168z" />
    <glyph glyph-name="uni1085" unicode="&#x1085;" 
d="M-839 -823q-191 0 -311.5 115t-120.5 305q0 119 -75 191.5t-194 72.5q-112 0 -189 -74.5t-77 -189.5q0 -211 297 -270l-27 -160l-79 16q-160 31 -258.5 142.5t-98.5 271.5q0 188 122 307t310 119q191 0 313 -119t122 -307q0 -117 74.5 -187.5t191.5 -70.5
q115 0 191.5 72.5t76.5 185.5q0 115 -76.5 189.5t-191.5 74.5q-41 0 -156 -43l15 176q79 29 141 29q190 0 312 -119t122 -307q0 -190 -121 -305t-313 -115z" />
    <glyph glyph-name="uni1086" unicode="&#x1086;" horiz-adv-x="3186" 
d="M2492 -4q-321 0 -483 262q-174 -262 -485 -262q-312 0 -480 262q-170 -258 -481 -258q-274 0 -502 283l136 104q178 -217 366 -217q168 0 281.5 98.5t113.5 266.5v61q0 160 -118 262q-115 94 -277 94q-223 0 -381 -264l-147 86l43 74q158 274 485 274q252 0 409.5 -153.5
t157.5 -405.5v-31q0 -165 117 -268q111 -98 277 -98q172 0 285.5 111.5t113.5 285.5q0 168 -114.5 278.5t-284.5 110.5q-68 0 -215 -55l-58 164l76 26q86 31 197 31q256 0 412.5 -150.5t156.5 -404.5v-31q0 -165 119 -268q112 -98 280 -98q172 0 284 111.5t112 285.5
q0 168 -113 278.5t-283 110.5q-71 0 -219 -55l-63 164l82 26q92 31 200 31q250 0 408 -153.5t158 -401.5q0 -254 -157 -410.5t-409 -156.5z" />
    <glyph glyph-name="uni1087" unicode="&#x1087;" 
d="M-669 -618h-283v166h197v493h166v-563q0 -96 -80 -96z" />
    <glyph glyph-name="uni1088" unicode="&#x1088;" 
d="M-399 -829q-80 0 -80 98v803h168v-733h176v-168h-264zM-653 -829h-263v168h172v733h170v-803q0 -98 -79 -98z" />
    <glyph glyph-name="uni1089" unicode="&#x1089;" 
d="M-399 -829q-80 0 -80 98v803h168v-733h176v-168h-264zM-747 -829v901h170v-901h-170zM-933 -829h-263v168h172v733h170v-803q0 -98 -79 -98z" />
    <glyph glyph-name="uni108A" unicode="&#x108a;" 
d="M-673 -839q-154 0 -277 98q-88 -55 -211 -55q-258 0 -305 176l-20 82l172 35q-2 -13 -2 -25q0 -31 16 -55q12 -49 154 -49q57 0 96 24q-43 92 -43 191q0 182 119.5 302.5t300.5 120.5q182 0 303 -120.5t121 -302.5q0 -178 -122 -300t-302 -122zM-673 -153
q-117 0 -190.5 -74t-73.5 -190q0 -115 75.5 -186.5t188.5 -71.5q118 0 190 70.5t72 187.5q0 116 -72 190t-190 74z" />
    <glyph glyph-name="uni108B" unicode="&#x108b;" 
d="M-1417 1696h4q7 90 62 146t143 56q35 0 78 -8l20 -172q-47 54 -92 68q-94 0 -98 -98q0 -31 37 -78l55 10q35 0 78 -10l12 -180q-43 59 -84 67q-86 -4 -106 -98q0 -41 37 -68q22 -31 63 -31q31 -2 90 68l-12 -158q-43 -20 -84 -20q-92 0 -148.5 59.5t-56.5 151.5
q0 80 62 151q-56 74 -60 144zM-692 1106q-174 0 -293.5 121t-119.5 297t120.5 295.5t296.5 119.5t292 -119.5t116 -295.5q0 -170 -121 -294t-291 -124zM-692 1774q-110 0 -179 -70t-69 -180q0 -105 69 -173.5t173 -68.5q109 0 177.5 66.5t68.5 175.5q0 108 -65.5 179
t-174.5 71z" />
    <glyph glyph-name="uni108C" unicode="&#x108c;" 
d="M-1447 1696h4q6 90 64.5 146t146.5 56q114 0 172 -73l-82 -92q-31 39 -80 53q-103 0 -103 -98q-6 -33 37 -78l60 10q67 0 123 -35q22 164 136.5 259t280.5 95q179 0 293.5 -117.5t114.5 -297.5q0 -176 -118 -297t-294 -121q-172 0 -284.5 105.5t-133.5 279.5l-36 -43
q-27 43 -76 45q-92 2 -115 -92q0 -101 103 -101q57 -8 88 56q53 -41 77 -86q-81 -86 -170 -86q-92 0 -151 60.5t-59 154.5q0 82 61 153q-16 25 -43 62q-16 33 -16 82zM-692 1774q-112 0 -182 -70t-70 -182q0 -41 17 -86q61 118 223 118q164 0 238 -116q14 43 14 86
q0 108 -65.5 179t-174.5 71zM-692 1450q-49 0 -104 -29q-64 -30 -70 -75q47 -62 166 -68q64 -4 131 37l47 41q-30 94 -170 94z" />
    <glyph glyph-name="uni108D" unicode="&#x108d;" horiz-adv-x="6" 
d="M-286 1528q-99 0 -158 59.5t-59 157.5q0 92 62.5 155.5t154.5 63.5q96 0 158.5 -61.5t62.5 -157.5t-62.5 -156.5t-158.5 -60.5zM-901 1690h4q5 92 61 153.5t148 61.5q111 0 172 -80l-84 -92q-32 43 -81 53q-99 0 -99 -98q-6 -35 37 -74l55 6q107 0 166 -74l-80 -98
q-30 41 -79 49q-91 0 -105 -96q0 -43 31 -64q24 -37 67 -37q56 -2 82 58q54 -43 84 -88q-86 -80 -170 -80q-94 0 -154.5 57.5t-60.5 153.5q0 80 62 151q-56 66 -56 138zM-286 1812q-68 0 -68 -67q0 -70 68 -70q71 0 71 70q0 67 -71 67z" />
    <glyph glyph-name="uni108E" unicode="&#x108e;" 
d="M-43 1524q-96 0 -158.5 62.5t-62.5 158.5q0 98 61.5 158.5t159.5 60.5q96 0 157.5 -61.5t61.5 -157.5q0 -98 -60.5 -159.5t-158.5 -61.5zM-688 1106q-178 0 -297.5 120t-119.5 298t118.5 296.5t298.5 118.5q179 0 296.5 -118.5t117.5 -296.5q0 -176 -119 -297t-295 -121z
M-43 1812q-71 0 -71 -67q0 -70 71 -70q68 0 68 70q0 67 -68 67zM-688 1774q-114 0 -181.5 -68t-67.5 -182q0 -105 70.5 -173.5t174.5 -68.5q107 0 176.5 68.5t69.5 173.5q0 108 -66.5 179t-175.5 71z" />
    <glyph glyph-name="uni108F" unicode="&#x108f;" horiz-adv-x="1247" 
d="M639 0h-150q-243 0 -313 23q-162 47 -172 202q-26 310 328 310q282 0 313 -236v-133q273 0 293 92q23 102 -209 221l-326 158q-188 88 -188 248q0 237 336 237q100 0 180 -30q152 -60 152 -170q0 -25 -29 -52h-168q19 23 19 39q0 9 -7 25q-28 10 -147 18
q-164 13 -164 -73q0 -52 195 -138l161 -73q375 -170 375 -394q0 -274 -479 -274zM449 330q-41 39 -119 39q-64 0 -109 -35q-51 -41 -45 -101q6 -73 303 -67q-4 135 -30 164z" />
    <glyph glyph-name="uni1090" unicode="&#x1090;" horiz-adv-x="1247" 
d="M958 -593v1156q0 166 -111.5 279.5t-277.5 113.5q-170 0 -281.5 -112.5t-111.5 -280.5v-12q64 14 137 14q179 0 314 -104q147 -113 147 -285q0 -196 -178 -182q-12 2 -70 6q-247 23 -383.5 169t-136.5 394q0 246 158 403.5t405 157.5q250 0 405.5 -155.5t155.5 -405.5
v-1156h-172zM252 436l-43 -14q8 -35 35 -68q137 -194 288 -194q33 0 62 16l8 8q6 6 6 17q0 118 -123 188q-108 60 -233 47z" />
    <glyph glyph-name="uni1091" unicode="&#x1091;" horiz-adv-x="2455" 
d="M1370 477h-2v-207q0 -90 -58.5 -155.5t-148.5 -65.5t-147.5 65.5t-57.5 155.5v338q-20 154 -127.5 251t-263.5 97q-174 0 -286.5 -110.5t-112.5 -282.5q0 -235 287 -387l-84 -151l-74 36q-299 150 -299 502q0 252 157.5 406.5t411.5 154.5q246 0 422 -184q60 104 174 104
q111 0 178 -106q168 186 418 186q254 0 413 -154.5t159 -406.5q0 -330 -363 -534l-86 147q281 156 281 387q0 172 -115 282.5t-289 110.5q-166 0 -276.5 -113.5t-110.5 -279.5v-86zM1579 -165q-98 -45 -98 -115v-315q0 -211 -211 -203q-209 8 -209 203v149q0 121 -74 199
t-194 78q-121 0 -195 -76t-76 -197q-2 -141 135 -233l-106 -115q-178 129 -178 342q0 182 118.5 301t301.5 125q182 8 303 -118t118 -308l-4 -154q0 -43 68 -67q59 8 59 69v314q0 106 66.5 181t173.5 75h412v-139zM1196 823q0 47 -35 47q-37 0 -37 -47v-553q0 -45 37 -45
q35 0 35 45v553z" />
    <glyph glyph-name="uni1092" unicode="&#x1092;" horiz-adv-x="1222" 
d="M1057 287q-64 -133 -202 -212t-290 -79q-248 0 -404.5 159.5t-156.5 407.5q0 246 156.5 403.5t404.5 157.5q328 0 529 -362l-144 -80q-157 274 -385 274q-170 0 -279.5 -112.5t-109.5 -280.5q0 -170 109.5 -281.5t279.5 -111.5q228 0 385 272l144 -80zM897 -829h-664
q-227 0 -227 199v4q0 209 238 209h57l25 -166q-119 0 -148 -41q2 -14 23 -27q41 -10 86 -10h524q115 0 115 115v364q-178 -69 -369 -69h-4q-274 0 -494 186l80 151q17 -8 37 -25q168 -138 375 -138h2q65 0 176 16q131 18 148 49q61 30 112 30q103 0 103 -165v-455
q2 -14 2 -28q0 -78 -59.5 -138.5t-137.5 -60.5z" />
    <glyph glyph-name="uni1093" unicode="&#x1093;" 
d="M-383 -833q-75 0 -221 53l56 148q116 -43 165 -43q113 0 185.5 70.5t72.5 181.5q0 110 -72.5 182t-185.5 72q-104 0 -178 -62q-80 -65 -80 -168v-24q0 -189 -116.5 -300.5t-307.5 -111.5q-237 0 -362 199l-39 65l135 82q119 -190 266 -190q109 0 187 61.5t78 165.5v47
q0 103 -82 172q-76 64 -183 64q-122 0 -254 -160l-122 96q176 217 376 217q207 0 342 -168q129 168 340 168q191 0 306.5 -109.5t115.5 -297.5q0 -189 -115.5 -299.5t-306.5 -110.5z" />
    <glyph glyph-name="uni1094" unicode="&#x1094;" 
d="M-227 -546q-91 0 -152 62.5t-61 152.5q0 92 60 153.5t153 61.5q92 0 154.5 -61.5t62.5 -153.5t-62.5 -153.5t-154.5 -61.5zM-227 -264q-66 0 -66 -67q0 -68 66 -68q69 0 69 68q0 67 -69 67z" />
    <glyph glyph-name="uni1095" unicode="&#x1095;" horiz-adv-x="595" 
d="M258 -546q-90 0 -149 62.5t-59 152.5q0 92 58 153.5t150 61.5q93 0 154 -61.5t61 -153.5q0 -90 -62 -152.5t-153 -62.5zM258 -264q-67 0 -67 -67q0 -68 67 -68q72 0 72 68q0 67 -72 67z" />
    <glyph glyph-name="uni1096" unicode="&#x1096;" 
d="M-320 -498q-79 0 -170 23l45 64q81 -15 125 -15q122 0 200.5 45.5t78.5 117.5q0 69 -80.5 116t-198.5 47q-121 0 -197 -45.5t-76 -117.5v-8l-4 -2q-8 -104 -116.5 -164.5t-281.5 -60.5q-174 0 -286 65.5t-112 169.5q0 105 110 169.5t288 64.5q214 0 338 -109
q121 109 337 109q175 0 285.5 -65t110.5 -169t-111 -169.5t-285 -65.5zM-995 -100q-121 0 -199.5 -46t-78.5 -117q0 -72 78.5 -117.5t199.5 -45.5q118 0 195.5 45.5t77.5 117.5q0 71 -77.5 117t-195.5 46zM-337 -852q-124 0 -209.5 51.5t-85.5 125.5q0 76 85 126.5t210 50.5
q126 0 212 -50.5t86 -126.5q0 -74 -86 -125.5t-212 -51.5zM-337 -564q-79 0 -130 -31.5t-51 -79.5q0 -46 51.5 -77t129.5 -31q81 0 133 30t52 78t-52 79.5t-133 31.5z" />
    <glyph glyph-name="uni1097" unicode="&#x1097;" horiz-adv-x="1216" 
d="M1233 -847h-182q-123 0 -123 143v287q-107 -62 -295 -62q-51 0 -117 13q-197 36 -248 69q-159 55 -159 195q0 73 48 123.5t124 50.5q41 0 94 -21q33 0 172 -28q276 0 338 118q8 8 12 14q0 17 -27 17q-28 0 -135 -54q-200 -24 -231 -24q-232 0 -373 172q-131 160 -131 397
q0 250 155.5 405.5t407.5 155.5q328 0 531 -362l-150 -86q-156 280 -381 280q-168 0 -277.5 -113.5t-109.5 -279.5q0 -172 108.5 -282.5t278.5 -110.5h31q8 -4 20 -4q80 37 234 78q221 10 221 -185q0 -83 -39 -136l-123 -105q-108 -67 -360 -67h-6q-127 0 -215 49
q-13 -6 -13 -15q0 -43 238 -90q207 -8 455 121q14 6 30 6q54 0 58 -86q-2 -24 -2 -135v-237q0 -56 45 -50h98zM850 -878h-70q-47 0 -47 28v56q-42 -12 -114 -12q-20 0 -45 3q-76 7 -96 13q-61 11 -61 38q0 15 18.5 24.5t47.5 9.5q16 0 37 -4q12 0 66 -5q106 0 130 23
q3 2 5 3q0 3 -11 3t-52 -10q-77 -5 -89 -5q-89 0 -143 34q-51 31 -51 77q0 49 60 79.5t157 30.5q126 0 205 -71l-58 -16q-60 54 -147 54q-65 0 -107 -22t-42 -55t42 -55t107 -22h12h8q30 7 90 15q85 2 85 -36q0 -17 -15 -27l-47 -21q-42 -13 -139 -13h-2q-49 0 -83 10
q-5 -1 -5 -3q0 -9 91 -18q80 -1 176 24q5 1 11 1q21 0 23 -17q-1 -4 -1 -26v-47q0 -11 17 -10h38z" />
    <glyph glyph-name="arrowdown" unicode="&#x2193;" horiz-adv-x="1024" 
d="M571 1489l-298 -619h-136l194 619h240z" />
    <glyph glyph-name="arrowboth" unicode="&#x2194;" horiz-adv-x="2048" 
d="M567 1489l-298 -619h-132l194 619h236zM961 1489l-298 -619h-132l194 619h236z" />
    <glyph glyph-name="arrowupdn" unicode="&#x2195;" horiz-adv-x="1024" 
d="M762 702l-49 -23.5t-63 -22.5q-36 -11 -65.5 -16.5t-75.5 -5.5q-88 0 -164 27t-129 81q-55 56 -84.5 137.5t-29.5 194.5q0 107 29.5 188.5t84.5 139.5q53 57 129.5 86t163.5 29q66 0 127.5 -16.5t125.5 -49.5v-171h-14l-36.5 28.5t-53.5 34.5q-29 16 -63.5 27t-76.5 11
q-109 0 -172 -75.5t-63 -231.5q0 -78 17.5 -137t48.5 -96q30 -35 72.5 -53t96.5 -18q42 0 80.5 11.5t63.5 27.5q28 16 50.5 33.5t35.5 28.5h14v-169zM1473 1489l-780 -1489h-165l780 1489h165zM1903 414q0 -213 -101.5 -328t-266.5 -115q-170 0 -269 119.5t-99 323.5
q0 211 102.5 325.5t265.5 114.5q166 0 267 -114.5t101 -325.5zM1725 412q0 155 -49.5 232t-140.5 77q-88 0 -139 -74.5t-51 -234.5q0 -154 49.5 -231t140.5 -77q90 0 140 77.5t50 230.5z" />
    <glyph glyph-name="arrowupdnbse" unicode="&#x21a8;" horiz-adv-x="1024" 
d="M15 422l177 235v455q0 226 61.5 302.5t172.5 76.5q96 0 158 -65t62 -174q0 -92 -60 -224.5t-225 -362.5v-415q0 -89 14.5 -110.5t41.5 -21.5q26 0 60 16.5t139 90.5v-162q-55 -44 -111.5 -65.5t-113.5 -21.5q-92 0 -145.5 57t-53.5 184v225l-79 -98zM361 899
q98 169 121.5 233t23.5 119q0 30 -6.5 54t-19.5 41q-10 12 -22.5 18.5t-27.5 6.5t-27.5 -6t-18.5 -20q-11 -21 -17 -76t-6 -143v-227z" />
    <glyph glyph-name="minus" unicode="&#x2212;" horiz-adv-x="1490" 
d="M1308 572h-1126v160h1126v-160z" />
    <glyph glyph-name="uni2215" unicode="&#x2215;" horiz-adv-x="886" 
d="M916 1489l-780 -1489h-165l780 1489h165z" />
    <glyph glyph-name="uni2219" unicode="&#x2219;" horiz-adv-x="620" 
d="M429 516h-239v273h239v-273z" />
    <glyph glyph-name="H22073" unicode="&#x25a1;" horiz-adv-x="1237" 
d="M146 944h944v-944h-944v944zM222 868v-792h792v792h-792z" />
    <glyph glyph-name="H18543" unicode="&#x25aa;" horiz-adv-x="726" 
d="M594 908v-463h-463v463h463z" />
    <glyph glyph-name="H18551" unicode="&#x25ab;" horiz-adv-x="726" 
d="M594 908v-463h-463v463h463zM518 832h-311v-311h311v311z" />
    <glyph glyph-name="H18533" unicode="&#x25cf;" horiz-adv-x="1237" 
d="M177 576q0 183 129 312t312 129q182 0 311 -129t129 -312q0 -182 -129 -311t-311 -129q-183 0 -312 129t-129 311z" />
    <glyph glyph-name="openbullet" unicode="&#x25e6;" horiz-adv-x="726" 
d="M363 928q104 0 177.5 -73.5t73.5 -177.5t-73.5 -177.5t-177.5 -73.5t-177.5 73.5t-73.5 177.5t73 177.5t178 73.5zM363 852q-73 0 -124 -51.5t-51 -123.5q0 -73 51.5 -124t123.5 -51t123.5 51t51.5 124q0 72 -51 123.5t-124 51.5z" />
    <glyph glyph-name="female" unicode="&#x2640;" horiz-adv-x="1536" 
d="M796 461v-402h459v-59h-459v-439h-59v439h-460v59h460v402q-103 0 -225.5 65.5t-195 191t-72.5 265.5q0 136 69.5 261t193.5 194t261 69q136 0 260.5 -69.5t193.5 -194t69 -260.5q0 -209 -143.5 -360.5t-351.5 -161.5zM767 1451q-118 0 -230.5 -60.5t-175.5 -173.5
t-63 -235q0 -195 137.5 -332.5t331.5 -137.5q195 0 332.5 137.5t137.5 332.5q0 122 -63 235t-175.5 173.5t-231.5 60.5z" />
    <glyph glyph-name="male" unicode="&#x2642;" horiz-adv-x="1536" 
d="M1216 1620l36 -16l163 -666l-57 -15l-142 581l-358 -768q148 -75 224 -202t76 -272q0 -136 -69 -260.5t-193.5 -194t-261.5 -69.5q-136 0 -260.5 69.5t-193.5 194t-69 260.5q0 217 153.5 370t372.5 153q78 0 166 -27l360 771l-537 -265l-24 53zM634 731
q-118 0 -230.5 -60.5t-175.5 -173.5t-63 -235q0 -195 137.5 -332.5t331.5 -137.5q195 0 332.5 137.5t137.5 332.5q0 122 -63 235t-175.5 173.5t-231.5 60.5z" />
    <glyph glyph-name="spade" unicode="&#x2660;" horiz-adv-x="1088" 
d="M545 1231q26 -108 80 -193t192.5 -210.5t175.5 -192.5t37 -136q0 -96 -64 -160t-156 -64q-78 0 -141.5 48.5t-112.5 141.5q1 -147 38.5 -233.5t120 -136t219.5 -58.5l7 -37h-793l8 37q184 0 285.5 107.5t97.5 320.5q-45 -95 -111.5 -142.5t-150.5 -47.5q-90 0 -154.5 65
t-64.5 156q0 73 33 132q45 82 146 165t149 137q73 83 106.5 148t52.5 153z" />
    <glyph glyph-name="club" unicode="&#x2663;" horiz-adv-x="1344" 
d="M1098 0h-848l8 34q165 35 219 69q81 51 132.5 151t51.5 211q0 16 -1 46q-61 -124 -148.5 -181t-178.5 -57q-116 0 -197 81t-81 199q0 116 74 195.5t168 79.5q60 0 163 -51q-42 70 -54.5 105.5t-12.5 76.5q0 114 79 193t197 79t198.5 -79t80.5 -188q0 -89 -69 -187
q84 40 101 45q27 8 61 8q100 0 173.5 -78.5t73.5 -194.5q0 -120 -80.5 -201.5t-193.5 -81.5q-63 0 -129.5 30.5t-115.5 81.5q-35 37 -87 125q4 -159 48.5 -251.5t136.5 -153.5q62 -41 223 -72z" />
    <glyph glyph-name="heart" unicode="&#x2665;" horiz-adv-x="1216" 
d="M610 -24q-31 118 -88.5 221.5t-222.5 321.5q-121 160 -149 203q-46 70 -66.5 128.5t-20.5 118.5q0 111 74 186t183 75q110 0 191 -78q61 -58 99 -173q33 113 93 172q83 80 192 80q108 0 183 -74.5t75 -177.5q0 -90 -44 -187.5t-170 -255.5q-164 -207 -239 -340
q-59 -105 -90 -220z" />
    <glyph glyph-name="diamond" unicode="&#x2666;" horiz-adv-x="1045" 
d="M521 1231q89 -151 219 -324q150 -200 242 -303q-74 -78 -242 -302q-136 -182 -218 -326q-27 52 -74 121q-81 120 -201 279q-26 35 -183 228q101 115 260 328q118 158 197 299z" />
    <glyph glyph-name="uni266F" unicode="&#x266f;" horiz-adv-x="1139" 
d="M1035 416l-200 -89v-327h-86v288l-358 -160v-338h-86v299l-200 -89v168l200 89v494l-200 -89v168l200 89v327h86v-288l358 160v348h86v-309l200 89v-168l-200 -89v-494l200 89v-168zM749 456v494l-358 -160v-494z" />
  </font>
</defs>
</svg>
